<?xml version="1.0" encoding="iso-8859-1"?>
<!-- Generator: Adobe Illustrator 19.0.0, SVG Export Plug-In . SVG Version: 6.00 Build 0)  -->
<svg version="1.1" id="Layer_1" xmlns="http://www.w3.org/2000/svg" xmlns:xlink="http://www.w3.org/1999/xlink" x="0px" y="0px"
	 viewBox="0 0 512 512" style="enable-background:new 0 0 512 512;" xml:space="preserve">
<g>
	<polyline style="fill:#FFB92E;" points="470.244,113.362 465.26,8.232 407.919,8.232 394.334,294.834 478.845,294.834 
		471.612,142.251 	"/>
	<polygon style="fill:#FFB92E;" points="296.874,8.232 283.29,294.834 367.8,294.834 354.216,8.232 	"/>
</g>
<g>
	<polygon style="fill:#EF9A1D;" points="407.919,8.232 394.334,294.834 416.861,294.834 430.445,8.232 	"/>
	<polygon style="fill:#EF9A1D;" points="296.874,8.232 283.29,294.834 305.818,294.834 319.402,8.232 	"/>
</g>
<g>
	<polygon style="fill:#E35F46;" points="404.692,75.398 468.486,75.398 467.003,44.507 406.176,44.507 	"/>
	<polygon style="fill:#E35F46;" points="293.649,75.398 357.443,75.398 355.959,44.507 295.132,44.507 	"/>
</g>
<g>
	<path style="fill:#F7984B;" d="M465.422,16.463h-57.503c-4.546,0-8.232-3.684-8.232-8.232S403.373,0,407.919,0h57.503
		c4.546,0,8.232,3.684,8.232,8.232S469.968,16.463,465.422,16.463z"/>
	<path style="fill:#F7984B;" d="M354.216,16.463h-57.342c-4.546,0-8.232-3.684-8.232-8.232S292.328,0,296.874,0h57.342
		c4.547,0,8.232,3.684,8.232,8.232S358.763,16.463,354.216,16.463z"/>
</g>
<g>
	<polygon style="fill:#E35F46;" points="406.176,44.507 404.692,75.398 427.22,75.398 428.703,44.507 	"/>
	<polygon style="fill:#E35F46;" points="295.132,44.507 293.649,75.398 316.176,75.398 317.659,44.507 	"/>
</g>
<g>
	<polygon style="fill:#D8422E;" points="406.176,44.507 404.692,75.398 427.22,75.398 428.703,44.507 	"/>
	<polygon style="fill:#D8422E;" points="295.132,44.507 293.649,75.398 316.176,75.398 317.659,44.507 	"/>
</g>
<g>
	<path style="fill:#EF711D;" d="M422.214,8.232c0-4.547,3.686-8.232,8.232-8.232h-22.527c-4.546,0-8.232,3.684-8.232,8.232
		s3.686,8.232,8.232,8.232h22.527C425.901,16.463,422.214,12.779,422.214,8.232z"/>
	<path style="fill:#EF711D;" d="M311.171,8.232c0-4.547,3.686-8.232,8.232-8.232h-22.527c-4.546,0-8.232,3.684-8.232,8.232
		s3.686,8.232,8.232,8.232h22.527C314.856,16.463,311.171,12.779,311.171,8.232z"/>
</g>
<polyline style="fill:#7C7A75;" points="431.241,314.535 491.426,314.535 491.426,494.838 253.7,494.838 253.7,314.535 
	403.072,314.535 "/>
<path style="fill:#CCC3A8;" d="M491.426,324.628h2.154c7.597,0,13.755-6.158,13.755-13.755v-3.38
	c0-7.597-6.158-13.755-13.755-13.755h-82.68h-157.2v30.891"/>
<g>
	<rect x="286.588" y="355.909" style="fill:#36A1CB;" width="58.345" height="46.955"/>
</g>
<g>
	<g>
		<rect x="286.588" y="402.872" style="fill:#8BD8F7;" width="58.345" height="46.955"/>
	</g>
	<g>
		<rect x="344.494" y="355.909" style="fill:#8BD8F7;" width="85.685" height="46.955"/>
	</g>
</g>
<g>
	<g>
		<rect x="344.494" y="402.872" style="fill:#36A1CB;" width="58.821" height="46.955"/>
	</g>
	<g>
		<rect x="403.267" y="355.909" style="fill:#36A1CB;" width="58.345" height="46.955"/>
	</g>
</g>
<g>
	<rect x="403.267" y="402.872" style="fill:#8BD8F7;" width="58.345" height="46.955"/>
</g>
<path style="fill:#36A1CB;" d="M254.107,262.313c-1.777-0.956-3.937-0.859-5.623,0.25l-78.804,51.951
	c-1.539,1.016-2.467,2.737-2.467,4.582v162.013c0,3.031,2.457,5.488,5.488,5.488h78.804c3.031,0,5.488-2.456,5.488-5.488V267.144
	C256.992,265.126,255.885,263.27,254.107,262.313z"/>
<path style="fill:#2393B5;" d="M201.787,293.347l-32.107,21.166c-1.539,1.016-2.467,2.737-2.467,4.582v162.013
	c0,3.031,2.457,5.488,5.488,5.488h29.087V293.347z"/>
<path style="fill:#8BD8F7;" d="M176.95,262.313c-1.777-0.956-3.936-0.859-5.622,0.25l-78.804,51.951
	c-1.54,1.016-2.467,2.737-2.467,4.582v162.013c0,3.031,2.457,5.488,5.488,5.488h78.804c3.03,0,5.488-2.456,5.488-5.488V267.144
	C179.837,265.126,178.727,263.27,176.95,262.313z"/>
<path style="fill:#57BEDD;" d="M124.628,293.348l-32.104,21.165c-1.54,1.016-2.467,2.737-2.467,4.582v162.013
	c0,3.031,2.457,5.488,5.488,5.488h29.084V293.348z"/>
<path style="fill:#36A1CB;" d="M99.792,262.313c-1.777-0.956-3.937-0.859-5.623,0.25l-78.802,51.951
	c-1.54,1.016-2.467,2.737-2.467,4.582v162.013c0,3.031,2.457,5.488,5.488,5.488H97.19c3.031,0,5.488-2.456,5.488-5.488V267.144
	C102.678,265.126,101.569,263.27,99.792,262.313z"/>
<path style="fill:#2393B5;" d="M34.853,301.667l-19.486,12.846c-1.54,1.016-2.467,2.737-2.467,4.582v162.013
	c0,3.031,2.457,5.488,5.488,5.488h16.465V301.667z"/>
<path style="fill:#CCC3A8;" d="M494.678,481.108h-82.68H100.002H17.322c-7.597,0-13.755,6.158-13.755,13.755v3.38
	c0,7.597,6.158,13.755,13.755,13.755h82.679h311.996h82.68c7.597,0,13.755-6.158,13.755-13.755v-3.38
	C508.433,487.267,502.275,481.108,494.678,481.108z"/>
<g>
	<path style="fill:#52C6EB;" d="M228.199,364.144h-25.61c-4.546,0-8.232-3.684-8.232-8.232s3.686-8.232,8.232-8.232h25.61
		c4.547,0,8.232,3.684,8.232,8.232S232.747,364.144,228.199,364.144z"/>
	<path style="fill:#52C6EB;" d="M228.199,390.914h-25.61c-4.546,0-8.232-3.684-8.232-8.232s3.686-8.232,8.232-8.232h25.61
		c4.547,0,8.232,3.684,8.232,8.232S232.747,390.914,228.199,390.914z"/>
</g>
<g>
	<path style="fill:#B7E9F9;" d="M149.395,364.144h-25.608c-4.546,0-8.232-3.684-8.232-8.232s3.686-8.232,8.232-8.232h25.608
		c4.547,0,8.232,3.684,8.232,8.232S153.942,364.144,149.395,364.144z"/>
	<path style="fill:#B7E9F9;" d="M149.395,390.914h-25.608c-4.546,0-8.232-3.684-8.232-8.232s3.686-8.232,8.232-8.232h25.608
		c4.547,0,8.232,3.684,8.232,8.232S153.942,390.914,149.395,390.914z"/>
</g>
<g>
	<path style="fill:#52C6EB;" d="M70.593,364.144h-25.61c-4.547,0-8.232-3.684-8.232-8.232s3.684-8.232,8.232-8.232h25.61
		c4.547,0,8.232,3.684,8.232,8.232S75.141,364.144,70.593,364.144z"/>
	<path style="fill:#52C6EB;" d="M70.593,390.914h-25.61c-4.547,0-8.232-3.684-8.232-8.232s3.684-8.232,8.232-8.232h25.61
		c4.547,0,8.232,3.684,8.232,8.232S75.141,390.914,70.593,390.914z"/>
</g>
<rect x="256.988" y="324.629" style="fill:#6B6861;" width="21.951" height="156.476"/>
<g>
	<rect x="256.988" y="293.733" style="fill:#C9B585;" width="21.951" height="30.896"/>
	<path style="fill:#C9B585;" d="M25.979,498.245v-3.38c0-7.597,6.158-13.755,13.755-13.755H17.322
		c-7.597,0-13.755,6.158-13.755,13.755v3.38c0,7.597,6.158,13.755,13.755,13.755h22.412C32.137,512,25.979,505.842,25.979,498.245z"
		/>
</g>
<g>
</g>
<g>
</g>
<g>
</g>
<g>
</g>
<g>
</g>
<g>
</g>
<g>
</g>
<g>
</g>
<g>
</g>
<g>
</g>
<g>
</g>
<g>
</g>
<g>
</g>
<g>
</g>
<g>
</g>
</svg>
