<?xml version="1.0" encoding="iso-8859-1"?>
<!-- Generator: Adobe Illustrator 19.0.0, SVG Export Plug-In . SVG Version: 6.00 Build 0)  -->
<svg version="1.1" id="Layer_1" xmlns="http://www.w3.org/2000/svg" xmlns:xlink="http://www.w3.org/1999/xlink" x="0px" y="0px"
	 viewBox="0 0 512 512" style="enable-background:new 0 0 512 512;" xml:space="preserve">
<rect x="7.838" y="140.219" style="fill:#FFFFFF;" width="496.094" height="111.858"/>
<rect x="7.838" y="356.098" style="fill:#CBBBA0;" width="496.094" height="24.004"/>
<rect x="7.838" y="252.078" style="fill:#F9B233;" width="496.094" height="104.02"/>
<rect x="463.926" y="300.09" style="fill:#E30613;" width="40.007" height="32.007"/>
<g>
	<rect x="47.846" y="172.064" style="fill:#86CBED;" width="136.032" height="104.02"/>
	<rect x="223.884" y="172.064" style="fill:#86CBED;" width="136.032" height="104.02"/>
	<rect x="399.913" y="172.064" style="fill:#86CBED;" width="104.02" height="104.02"/>
</g>
<circle style="fill:#575756;" cx="119.864" cy="380.104" r="48.009"/>
<circle style="fill:#FFFFFF;" cx="119.864" cy="380.104" r="24.004"/>
<circle style="fill:#575756;" cx="391.918" cy="380.104" r="48.009"/>
<circle style="fill:#FFFFFF;" cx="391.918" cy="380.104" r="24.004"/>
<g>
	<path style="fill:#1D1D1B;" d="M391.912,411.946c-17.558,0-31.843-14.285-31.843-31.842s14.285-31.844,31.843-31.844
		s31.844,14.285,31.844,31.844C423.756,397.662,409.47,411.946,391.912,411.946z M391.912,363.935
		c-8.914,0-16.166,7.252-16.166,16.167s7.252,16.166,16.166,16.166c8.914,0,16.167-7.252,16.167-16.166
		S400.826,363.935,391.912,363.935z"/>
	<path style="fill:#1D1D1B;" d="M119.861,411.946c-17.558,0-31.844-14.285-31.844-31.842s14.285-31.844,31.844-31.844
		s31.843,14.285,31.843,31.844C151.703,397.662,137.419,411.946,119.861,411.946z M119.861,363.935
		c-8.914,0-16.167,7.252-16.167,16.167s7.252,16.166,16.167,16.166s16.166-7.252,16.166-16.166S128.775,363.935,119.861,363.935z"/>
</g>
<g>
	<rect x="87.852" y="292.252" style="fill:#FFFFFF;" width="16.004" height="15.677"/>
	<rect x="63.846" y="292.252" style="fill:#FFFFFF;" width="16.004" height="15.677"/>
	<rect x="39.84" y="292.252" style="fill:#FFFFFF;" width="16.003" height="15.677"/>
</g>
<rect x="415.913" y="292.252" style="fill:#1D1D1B;" width="24.004" height="15.677"/>
<g>
	
		<rect x="432.077" y="192.753" transform="matrix(-0.7071 -0.7071 0.7071 -0.7071 606.6842 659.434)" style="fill:#FFFFFF;" width="15.677" height="22.632"/>
	
		<rect x="450.081" y="189.291" transform="matrix(-0.7071 -0.7071 0.7071 -0.7071 621.8637 709.7198)" style="fill:#FFFFFF;" width="15.677" height="73.554"/>
	
		<rect x="276.049" y="192.75" transform="matrix(-0.7071 -0.7071 0.7071 -0.7071 340.3299 549.1002)" style="fill:#FFFFFF;" width="15.677" height="22.632"/>
	
		<rect x="294.056" y="189.291" transform="matrix(-0.7071 -0.7071 0.7071 -0.7071 355.5124 599.3934)" style="fill:#FFFFFF;" width="15.677" height="73.554"/>
	
		<rect x="96.016" y="192.747" transform="matrix(-0.7071 -0.7071 0.7071 -0.7071 32.9951 421.7935)" style="fill:#FFFFFF;" width="15.677" height="22.632"/>
	
		<rect x="114.02" y="189.296" transform="matrix(-0.7071 -0.7071 0.7071 -0.7071 48.1671 472.0973)" style="fill:#FFFFFF;" width="15.677" height="73.554"/>
</g>
<g>
	<path style="fill:#1D1D1B;" d="M511.773,348.919V132.218h-40.008v-32.17h-15.677v32.17h-224.37v-8.327h16.166v-15.677H23.842
		v15.677h16.166v8.327H0v255.724h64.573c3.824,27.095,27.153,48.009,55.287,48.009s51.462-20.914,55.286-48.009h161.479
		c3.824,27.095,27.153,48.009,55.286,48.009c28.133,0,51.462-20.914,55.286-48.009h64.573v-23.345l0.098,0.001l0.13-15.676
		L511.773,348.919z M55.685,123.889h160.358v8.327H55.685V123.889z M64.573,372.264H15.677v-7.667h50.543
		C65.498,367.087,64.943,369.646,64.573,372.264z M119.861,420.273c-22.15,0-40.171-18.021-40.171-40.171
		c0-22.15,18.021-40.171,40.171-40.171s40.171,18.021,40.171,40.171C160.031,402.252,142.01,420.273,119.861,420.273z
		 M336.627,372.264h-161.48c-0.402-2.85-1.017-5.632-1.833-8.328H338.46C337.643,366.632,337.028,369.414,336.627,372.264z
		 M391.912,420.273c-22.15,0-40.171-18.021-40.171-40.171c0-22.15,18.021-40.171,40.171-40.171c22.15,0,40.171,18.021,40.171,40.171
		C432.083,402.252,414.062,420.273,391.912,420.273z M496.097,372.264H447.2c-0.397-2.811-1.001-5.555-1.802-8.217l50.699,0.419
		v7.798H496.097z M496.097,324.254h-24.331v-16.33h24.331V324.254z M496.097,292.249h-40.008v47.683h40.008v8.858l-58.308-0.482
		c-10.095-14.522-26.89-24.053-45.876-24.053c-18.965,0-35.742,9.511-45.841,24.004h-180.37
		c-10.099-14.494-26.876-24.004-45.841-24.004c-19.256,0-36.266,9.796-46.311,24.666H15.677v-89.005h24.331v24.004h151.703v-24.004
		h24.331v24.004h151.702v-24.004h24.331v24.004h104.02L496.097,292.249L496.097,292.249z M55.685,268.243V179.9h120.35v88.343
		H55.685z M231.718,268.243V179.9h120.349v88.343H231.718z M496.097,268.243h-88.343V179.9h88.343V268.243z M496.097,164.223
		h-104.02v80.016h-24.331v-80.016H216.042v80.016H191.71v-80.016H40.008v80.016H15.677v-96.345h480.42V164.223z"/>
	<rect x="456.087" y="76.049" style="fill:#1D1D1B;" width="15.677" height="16.003"/>
</g>
<g>
</g>
<g>
</g>
<g>
</g>
<g>
</g>
<g>
</g>
<g>
</g>
<g>
</g>
<g>
</g>
<g>
</g>
<g>
</g>
<g>
</g>
<g>
</g>
<g>
</g>
<g>
</g>
<g>
</g>
</svg>
