<?xml version="1.0" encoding="iso-8859-1"?>
<!-- Generator: Adobe Illustrator 19.0.0, SVG Export Plug-In . SVG Version: 6.00 Build 0)  -->
<svg version="1.1" id="Layer_1" xmlns="http://www.w3.org/2000/svg" xmlns:xlink="http://www.w3.org/1999/xlink" x="0px" y="0px"
	 viewBox="0 0 512 512" style="enable-background:new 0 0 512 512;" xml:space="preserve">
<polygon style="fill:#FFC266;" points="15,448 15,64.001 175.667,42.668 336.333,85.334 497,64.001 497,448 336.334,469.333 
	175.667,426.667 "/>
<polygon style="fill:#EBB25E;" points="175.667,42.668 336.333,85.334 336.334,469.333 175.667,426.667 "/>
<path style="fill:#AC825A;" d="M335.359,484.594l-160.667-42.667L0,465.123V50.861l176.642-23.455l160.666,42.667L512,46.878
	v414.263L335.359,484.594z M176.642,411.406l160.667,42.667L482,434.86V81.124l-146.642,19.471L174.692,57.929L30,77.141v353.737
	L176.642,411.406z"/>
<polygon style="fill:#543F29;" points="197.358,309.273 176.146,288.06 152.085,312.12 128.024,288.06 106.812,309.273 
	130.872,333.333 106.812,357.395 128.024,378.606 152.085,354.546 176.146,378.606 197.358,357.395 173.298,333.333 "/>
<polygon style="fill:#382A1B;" points="197.358,309.273 176.146,288.06 152.085,312.12 152.085,354.546 176.146,378.606 
	197.358,357.395 173.298,333.333 "/>
<g>
	<rect x="137.5" y="241.001" style="fill:#FFF1AB;" width="30" height="30"/>
	<rect x="137.5" y="187.671" style="fill:#FFF1AB;" width="30" height="30"/>
	<rect x="240.83" y="241.001" style="fill:#FFF1AB;" width="30" height="30"/>
	<rect x="240.83" y="187.671" style="fill:#FFF1AB;" width="30" height="30"/>
	<rect x="240.83" y="294.33" style="fill:#FFF1AB;" width="30" height="30"/>
	<rect x="240.83" y="347.671" style="fill:#FFF1AB;" width="30" height="30"/>
	<rect x="137.5" y="134.331" style="fill:#FFF1AB;" width="30" height="30"/>
	<rect x="344.5" y="347.671" style="fill:#FFF1AB;" width="30" height="30"/>
	<rect x="344.5" y="294.33" style="fill:#FFF1AB;" width="30" height="30"/>
	<rect x="344.5" y="241.001" style="fill:#FFF1AB;" width="30" height="30"/>
	<rect x="189.17" y="134.331" style="fill:#FFF1AB;" width="30" height="30"/>
	<rect x="240.83" y="134.331" style="fill:#FFF1AB;" width="30" height="30"/>
	<rect x="292.83" y="347.671" style="fill:#FFF1AB;" width="30" height="30"/>
</g>
<g>
	<polygon style="fill:#8A6848;" points="176.642,411.406 175.667,411.535 175.667,442.188 335.359,484.594 336.334,484.465 
		336.334,453.813 	"/>
	<polygon style="fill:#8A6848;" points="336.333,69.814 176.642,27.407 175.667,27.536 175.667,58.188 335.358,100.595 
		336.333,100.465 	"/>
</g>
<path style="fill:#FF4F19;" d="M359.5,217.668c-25.915,0-47-21.084-47-47s21.085-47,47-47s47,21.084,47,47
	S385.415,217.668,359.5,217.668z"/>
<path style="fill:#D43504;" d="M359.5,123.668c25.915,0,47,21.084,47,47s-21.085,47-47,47"/>
<path style="fill:#AB2B04;" d="M359.5,192.601c-12.094,0-21.934-9.839-21.934-21.933c0-12.095,9.84-21.934,21.934-21.934
	s21.934,9.839,21.934,21.934C381.434,182.762,371.594,192.601,359.5,192.601z"/>
<g>
</g>
<g>
</g>
<g>
</g>
<g>
</g>
<g>
</g>
<g>
</g>
<g>
</g>
<g>
</g>
<g>
</g>
<g>
</g>
<g>
</g>
<g>
</g>
<g>
</g>
<g>
</g>
<g>
</g>
</svg>
