<?xml version="1.0" encoding="iso-8859-1"?>
<!-- Generator: Adobe Illustrator 19.0.0, SVG Export Plug-In . SVG Version: 6.00 Build 0)  -->
<svg version="1.1" id="Layer_1" xmlns="http://www.w3.org/2000/svg" xmlns:xlink="http://www.w3.org/1999/xlink" x="0px" y="0px"
	 viewBox="0 0 504.123 504.123" style="enable-background:new 0 0 504.123 504.123;" xml:space="preserve">
<path style="fill:#7C6540;" d="M278.977,486.617c0,13.722-11.122,12.154-24.844,12.154h-4.143c-13.714,0-24.844,1.567-24.844-12.154
	l7.877-121.21c0-13.722,3.253-24.174,16.967-24.174h4.143c13.722,0,16.967,10.453,16.967,24.174L278.977,486.617z"/>
<path style="fill:#5E4525;" d="M232.369,402.547c7.877,16.573,12.761,26.104,20.638,26.12c7.861,0,14.761-9.555,21.094-26.12
	c0,0-0.228,0-0.221,0.016l-2.662-37.92c0-13.722-3.363-23.41-17.085-23.41h-4.143c-13.714,0-16.022,9.681-16.022,23.41l-1.599,37.92
	C232.369,402.547,232.369,402.547,232.369,402.547z"/>
<g>
	<path style="fill:#65930C;" d="M293.274,206.356c-27.168,101.384-67.631,178.617-90.403,172.505
		c-22.756-6.089-19.172-93.2,8.003-194.584c27.152-101.384,67.6-178.617,90.356-172.52
		C324.017,17.869,320.449,104.988,293.274,206.356z"/>
	<path style="fill:#65930C;" d="M273.4,232.255c-90.908,52.492-174.119,78.478-185.911,58.108
		c-11.784-20.433,52.342-79.494,143.234-131.986c90.908-52.46,174.119-78.462,185.927-58.061
		C428.402,120.71,364.308,179.787,273.4,232.255z"/>
	
		<ellipse transform="matrix(0.9659 0.2588 -0.2588 0.9659 59.1269 -58.5696)" style="fill:#65930C;" cx="252.014" cy="195.282" rx="189.986" ry="42.66"/>
	<path style="fill:#65930C;" d="M215.127,216.651C162.635,125.744,136.633,42.532,157.05,30.74
		c20.385-11.784,79.478,52.35,131.954,143.234c52.476,90.908,78.478,174.151,58.077,185.927
		C326.664,371.653,267.603,307.543,215.127,216.651z"/>
	<path style="fill:#65930C;" d="M293.274,184.285c27.168,101.384,30.751,188.495,7.971,194.584
		c-22.772,6.12-63.212-71.121-90.372-172.505c-27.168-101.392-30.752-188.479-7.995-194.607
		C225.634,5.668,266.106,82.901,293.274,184.285z"/>
	<path style="fill:#65930C;" d="M288.996,216.636c-52.46,90.923-111.537,155.018-131.954,143.273
		c-20.385-11.784,5.6-95.011,58.061-185.927c52.5-90.884,111.577-154.994,131.986-143.226
		C367.474,42.532,341.496,125.744,288.996,216.636z"/>
	<path style="fill:#65930C;" d="M263.105,236.517C161.705,263.7,74.61,267.268,68.49,244.52
		c-6.065-22.741,71.152-63.228,172.52-90.403c101.4-27.152,188.51-30.704,194.599-7.956
		C441.698,168.909,364.489,209.357,263.105,236.517z"/>
	<path style="fill:#65930C;" d="M230.754,232.271c-90.923-52.476-155.049-111.553-143.265-131.97
		c11.768-20.385,95.004,5.632,185.895,58.061c90.892,52.492,155.018,111.585,143.25,131.986
		C404.819,310.741,321.631,284.732,230.754,232.271z"/>
</g>
<g>
	
		<ellipse transform="matrix(0.7071 -0.7071 0.7071 0.7071 -64.2741 235.4403)" style="fill:#74AA17;" cx="252.065" cy="195.306" rx="189.99" ry="42.669"/>
	<path style="fill:#74AA17;" d="M252.077,237.974C147.109,237.99,62.031,218.88,62.031,195.313
		c0-23.552,85.079-42.646,190.015-42.646c104.952,0,190.047,19.094,190.047,42.646C442.077,218.88,357.014,237.974,252.077,237.974z
		"/>
	
		<ellipse transform="matrix(0.7072 0.707 -0.707 0.7072 211.8857 -121.0068)" style="fill:#74AA17;" cx="252.04" cy="195.316" rx="189.99" ry="42.661"/>
	<path style="fill:#74AA17;" d="M209.4,195.313C209.384,90.345,228.478,5.282,252.062,5.298
		c23.552-0.016,42.661,85.079,42.661,190.015c-0.016,104.952-19.125,190.031-42.661,190.031
		C228.494,385.328,209.4,300.265,209.4,195.313z"/>
</g>
<g>
	<path style="fill:#8EC426;" d="M176.577,169.39c0-9.058,7.349-16.416,16.408-16.416s16.4,7.357,16.4,16.416"/>
	<path style="fill:#8EC426;" d="M163.446,274.421c0-9.058,7.349-16.415,16.408-16.415s16.408,7.357,16.408,16.415"/>
	<path style="fill:#8EC426;" d="M273.723,141.821c0-9.058,7.349-16.416,16.408-16.416s16.408,7.357,16.408,16.416"/>
	<path style="fill:#8EC426;" d="M242.877,91.605c0-9.058,7.349-16.4,16.408-16.4s16.408,7.341,16.408,16.4"/>
	<path style="fill:#8EC426;" d="M185.108,129.666c0-9.058,7.341-16.4,16.4-16.4c9.066,0,16.416,7.341,16.416,16.4"/>
	<path style="fill:#8EC426;" d="M210.708,220.59c0-9.058,7.357-16.415,16.416-16.415s16.408,7.357,16.408,16.415"/>
	<path style="fill:#8EC426;" d="M133.908,201.882c0-9.058,7.341-16.4,16.4-16.4c9.066,0,16.416,7.341,16.416,16.4"/>
	<path style="fill:#8EC426;" d="M233.677,270.143c0-9.058,7.357-16.4,16.415-16.4c9.058,0,16.408,7.341,16.408,16.4"/>
	<path style="fill:#8EC426;" d="M330.831,291.482c0-9.058,7.341-16.416,16.4-16.416c9.066,0,16.415,7.357,16.415,16.416"/>
	<path style="fill:#8EC426;" d="M270.438,196.636c0-9.058,7.349-16.416,16.408-16.416s16.4,7.357,16.4,16.416"/>
	<path style="fill:#8EC426;" d="M298.016,224.205c0-9.058,7.349-16.416,16.408-16.416s16.408,7.357,16.408,16.416"/>
	<path style="fill:#8EC426;" d="M144.416,106.051c0-9.058,7.349-16.416,16.408-16.416s16.408,7.357,16.408,16.416"/>
	<path style="fill:#8EC426;" d="M330.831,114.251c0-9.058,7.341-16.416,16.4-16.416c9.066,0,16.415,7.357,16.415,16.416"/>
	<path style="fill:#8EC426;" d="M354.462,197.944c0-9.058,7.341-16.4,16.4-16.4c9.066,0,16.415,7.341,16.415,16.4"/>
</g>
<g>
	<polygon style="fill:#65930C;" points="56.493,498.771 28.247,470.525 0,498.771 	"/>
	<polygon style="fill:#65930C;" points="90.923,498.771 62.677,470.525 34.43,498.771 	"/>
	<polygon style="fill:#65930C;" points="125.353,498.771 97.107,470.525 68.86,498.771 	"/>
	<polygon style="fill:#65930C;" points="159.783,498.771 131.552,470.525 103.306,498.771 	"/>
	<polygon style="fill:#65930C;" points="194.213,498.771 165.983,470.525 137.736,498.771 	"/>
	<polygon style="fill:#65930C;" points="228.643,498.771 200.413,470.525 172.166,498.771 	"/>
	<polygon style="fill:#65930C;" points="263.089,498.771 234.843,470.525 206.604,498.771 	"/>
	<polygon style="fill:#65930C;" points="297.519,498.771 269.28,470.525 241.034,498.771 	"/>
	<polygon style="fill:#65930C;" points="331.957,498.771 303.726,470.525 275.48,498.771 	"/>
	<polygon style="fill:#65930C;" points="366.387,498.771 338.156,470.525 309.91,498.771 	"/>
	<polygon style="fill:#65930C;" points="400.817,498.771 372.586,470.525 344.34,498.771 	"/>
	<polygon style="fill:#65930C;" points="435.263,498.771 407.016,470.525 378.77,498.771 	"/>
	<polygon style="fill:#65930C;" points="469.693,498.771 441.446,470.525 413.2,498.771 	"/>
	<polygon style="fill:#65930C;" points="504.123,498.771 475.876,470.525 447.63,498.771 	"/>
</g>
<g>
</g>
<g>
</g>
<g>
</g>
<g>
</g>
<g>
</g>
<g>
</g>
<g>
</g>
<g>
</g>
<g>
</g>
<g>
</g>
<g>
</g>
<g>
</g>
<g>
</g>
<g>
</g>
<g>
</g>
</svg>
