<?xml version="1.0" encoding="iso-8859-1"?>
<!-- Generator: Adobe Illustrator 19.0.0, SVG Export Plug-In . SVG Version: 6.00 Build 0)  -->
<svg version="1.1" id="Layer_1" xmlns="http://www.w3.org/2000/svg" xmlns:xlink="http://www.w3.org/1999/xlink" x="0px" y="0px"
	 viewBox="0 0 481.882 481.882" style="enable-background:new 0 0 481.882 481.882;" xml:space="preserve">
<path style="fill:#FFCDD2;" d="M353.882,169.412c-7.529,0-7.529,8.365-7.529,8.365v-8.343c0-0.09,0-0.181,0-0.271
	c-21.617,2.936-63.488,7.778-105.412,7.778c-7.529,0-15.059-0.158-22.468-0.429c-33.882-1.25-65.212-4.939-82.944-7.356
	c0,0.09,0,0.181,0,0.271v60.22l30.118,75.294l38.438,30.087c4.284,4.811,10.421,7.56,16.866,7.56h19.991h19.983
	c6.438,0,12.589-2.748,16.866-7.56l38.445-30.087l24.147-60.386c21.338-1.544,28.559-33.912,28.559-58.406
	C368.941,177.777,361.412,169.412,353.882,169.412z"/>
<path style="fill:#FFEBEE;" d="M135.529,169.163c0,0.09,0,0.181,0,0.271v8.358c0,0,0-8.358-7.529-8.358
	c-7.529,0-15.059,8.358-15.059,16.738c0,24.493,7.213,56.87,28.559,58.413l24.147,60.356l38.438,30.087
	c4.284,4.811,10.421,7.56,16.866,7.56h19.991V176.941c-7.529,0-15.059-0.158-22.468-0.429
	C184.591,175.262,153.254,171.573,135.529,169.163z"/>
<g>
	<path style="fill:#212121;" d="M451.765,387.765c-4.631-10.037-12.777-18.033-22.912-22.453l-112.617-30.253v-30.118
		l-38.438,30.087c-4.284,4.811-10.413,7.56-16.873,7.56h-19.983h-19.991c-6.445,0-12.582-2.748-16.866-7.56l-38.438-30.087v30.118
		L53.022,365.312c-10.12,4.42-18.274,12.416-22.904,22.453L0,470.588h240.941h240.941L451.765,387.765z"/>
	<path style="fill:#212121;" d="M240.941,161.882c-86.054,0-120.471-15.059-120.471-15.059v22.588c0,0,8.606,52.706,68.841,52.706
		c23.921,0,51.629-22.588,51.629-30.118c0,7.529,27.708,30.118,51.629,30.118c60.235,0,68.841-52.706,68.841-52.706v-22.588
		C361.412,146.824,327.002,161.882,240.941,161.882z"/>
</g>
<g>
	<path style="fill:#FFFFFF;" d="M218.353,184.471c0,5.512-10.112,14.72-22.588,14.818c-22.588,0.158-30.118-9.299-30.118-14.818
		C180.706,184.471,203.294,184.471,218.353,184.471z"/>
	<path style="fill:#FFFFFF;" d="M263.529,184.471c0,5.512,10.12,14.72,22.588,14.81c22.588,0.158,30.118-9.291,30.118-14.81
		C301.176,184.471,278.588,184.471,263.529,184.471z"/>
</g>
<path style="fill:#212121;" d="M361.412,116.954c0,0-2.824,0.625-8.237,1.559c-6.633-93.237-59.422-107.219-112.233-107.219
	S135.334,25.276,128.708,118.52c-2.168-0.376-6.159-1.099-8.237-1.566c-4.141,0-7.906,2.251-10.639,5.873
	c-2.726,3.629-4.42,8.629-4.42,14.118v0.008v9.992c0,11,6.776,19.991,15.059,19.991c0,0,46.118,7.665,98.003,9.57
	c7.409,0.279,14.938,0.437,22.468,0.437c60.235,0,120.471-9.999,120.471-9.999c8.282,0,15.059-8.99,15.059-19.991v-9.992
	C376.471,125.952,369.694,116.954,361.412,116.954z"/>
<path style="fill:#545554;" d="M128.708,118.52c-5.414-0.941-8.237-1.566-8.237-1.566c-8.282,0-15.059,8.99-15.059,19.991v9.999
	c0,11,6.776,19.991,15.059,19.991c0,0,60.235,9.999,120.471,9.999V11.294C188.13,11.294,135.334,25.276,128.708,118.52z"/>
<path style="fill:#212121;" d="M293.617,274.824c-0.663-18.357,3.486-37.647-52.706-37.647c-56.184,0-52.051,19.298-52.706,37.647
	c-0.949,26.406,22.588,37.647,52.706,60.235C271.029,312.471,294.573,301.229,293.617,274.824z M240.911,297.412
	c-37.617,0.218-36.322-37.346-37.587-37.647h75.234C277.293,260.066,278.528,297.63,240.911,297.412z"/>
<g>
</g>
<g>
</g>
<g>
</g>
<g>
</g>
<g>
</g>
<g>
</g>
<g>
</g>
<g>
</g>
<g>
</g>
<g>
</g>
<g>
</g>
<g>
</g>
<g>
</g>
<g>
</g>
<g>
</g>
</svg>
