<?xml version="1.0" encoding="iso-8859-1"?>
<!-- Generator: Adobe Illustrator 19.0.0, SVG Export Plug-In . SVG Version: 6.00 Build 0)  -->
<svg version="1.1" id="Layer_1" xmlns="http://www.w3.org/2000/svg" xmlns:xlink="http://www.w3.org/1999/xlink" x="0px" y="0px"
	 viewBox="0 0 512.002 512.002" style="enable-background:new 0 0 512.002 512.002;" xml:space="preserve">
<path style="fill:#E5A1A1;" d="M297.243,210.995c-0.711-0.102-1.432-0.152-2.163-0.152c-11.496,0-20.819,13.182-20.819,29.451
	s9.323,39.606,20.819,39.606c3.209,0,6.246-1.818,8.967-4.793h163.89c2.722,2.976,5.758,4.793,8.967,4.793
	c11.496,0,20.819-23.337,20.819-39.606s-9.323-29.451-20.819-29.451c-0.731,0-1.452,0.051-2.163,0.152"/>
<path style="fill:#F9C5C5;" d="M298.146,174.604c-3.105,37.71,0.884,76.84,9.018,117.04c6.703,33.12,35.535,57.047,69.319,57.74
	c6.338,0.13,12.677,0.13,19.015,0c33.784-0.694,62.617-24.62,69.319-57.74c8.136-40.201,12.123-79.33,9.018-117.04l-62.456-37.895
	l-89.368,15.233L298.146,174.604z"/>
<path style="fill:#FFDD00;" d="M406.302,370.097h14.126c33.046,0,59.826,26.79,59.826,59.836v74.45h-185.48v-74.45
	c0-33.046,26.78-59.836,59.826-59.836h14.126"/>
<path style="fill:#F9C5C5;" d="M406.302,348.598v21.499c0,10.376-8.412,18.788-18.788,18.788l0,0
	c-10.376,0-18.788-8.412-18.788-18.788v-21.499"/>
<g>
	<path style="fill:#E5A1A1;" d="M406.302,348.598v13.547c0,0-29.167,2.255-25.5,25.5c-2.488-0.944-4.722-2.417-6.571-4.265
		c-3.402-3.392-5.504-8.094-5.504-13.283v-21.499H406.302z"/>
	<path style="fill:#E5A1A1;" d="M474.7,212.218c0,0-27.44-30.842-80.249-26.78c-52.809,4.062-67.697,35.879-67.697,65.666
		c0,29.796,7.312,77.568,49.732,98.275c-33.787-0.691-62.619-24.617-69.321-57.734c-5.464-26.993-9.059-53.509-9.881-79.426
		c-0.701-21.865-2.082-80.202,19.651-82.619c34.376-3.829,103.738,7.342,138.115,11.171
		C476.782,143.187,475.401,190.353,474.7,212.218z"/>
</g>
<path style="fill:#FA496E;" d="M494.658,194.264c0,8.713-1.026,17.183-2.965,25.297c-3.778-5.382-9.008-8.713-14.786-8.713
	c-0.731,0-1.452,0.051-2.163,0.152c-35.148-8.571-58.282-36.56-58.282-36.56v26.404c-29.908,4.336-60.253-2.671-82.727-10.541
	c-21.347-7.464-35.585-15.7-35.585-15.7c-0.985,11.994-1.259,24.129-0.904,36.397c-0.711-0.102-1.432-0.152-2.163-0.152
	c-5.778,0-11.009,3.331-14.786,8.713c-1.94-8.114-2.965-16.584-2.965-25.297c0-60.019,48.645-108.664,108.664-108.664
	C446.003,85.6,494.658,134.244,494.658,194.264z"/>
<path style="fill:#E23760;" d="M385.995,85.6c0,0-47.213,42.582-52.26,104.703c-21.347-7.464-35.585-15.7-35.585-15.7
	c-0.985,11.994-1.259,24.129-0.904,36.397c-0.711-0.102-1.432-0.152-2.163-0.152c-5.778,0-11.009,3.331-14.786,8.713
	c-1.94-8.114-2.965-16.584-2.965-25.297C277.331,134.244,325.975,85.6,385.995,85.6z"/>
<path style="fill:#E5A1A1;" d="M37.262,210.995c-0.711-0.102-1.432-0.152-2.163-0.152c-11.496,0-20.819,13.182-20.819,29.451
	S23.602,279.9,35.098,279.9c3.209,0,6.246-1.818,8.967-4.793h163.89c2.722,2.976,5.758,4.793,8.967,4.793
	c11.496,0,20.819-23.337,20.819-39.606s-9.323-29.451-20.819-29.451c-0.731,0-1.452,0.051-2.163,0.152"/>
<path style="fill:#FA496E;" d="M473.037,237.87c-1.716,17.681-4.54,35.615-8.216,53.773c-6.703,33.117-35.534,57.043-69.322,57.744
	c-6.337,0.122-12.674,0.122-19.011,0c-7.566-0.163-14.888-1.483-21.763-3.808c-23.825-8.074-42.359-28.232-47.558-53.936
	c-3.676-18.158-6.5-36.093-8.216-53.773c11.405-4.103,24.069,1.29,29.024,12.369l1.98,4.428c3.9,8.724,12.41,13.751,21.215,13.751
	c4.123,0,8.297-1.097,12.105-3.433c6.967-4.286,14.837-6.418,22.718-6.418c7.881,0,15.751,2.133,22.718,6.418
	c11.943,7.322,27.603,2.478,33.32-10.318l1.98-4.428C448.969,239.161,461.633,233.768,473.037,237.87z"/>
<path style="fill:#E23760;" d="M354.726,345.581c-23.825-8.074-42.359-28.232-47.558-53.936c-3.676-18.158-6.5-36.093-8.216-53.773
	c11.405-4.103,24.069,1.29,29.024,12.369l1.98,4.428C329.956,254.669,328.657,303.517,354.726,345.581z"/>
<path style="fill:#52DBFF;" d="M313.822,17.03c-12.551-12.551-32.899-12.551-45.447,0l-0.647,0.647l-6.036,6.036l-6.036-6.036
	l-0.647-0.647c-12.551-12.551-32.899-12.551-45.447,0c-6.22,6.217-9.358,14.349-9.411,22.501c-0.002,0.073-0.002,0.148-0.002,0.221
	c0,4.731,1.04,9.466,3.12,13.828c1.531,3.218,3.629,6.232,6.293,8.897l1.29,1.29l5.395,5.395l3.506,3.506l8.899,8.899l8.899,8.899
	l8.892,8.892l15.251,15.251l15.249-15.251l8.892-8.892l8.899-8.899l8.899-8.899l8.899-8.899l1.29-1.29
	c2.665-2.665,4.762-5.681,6.29-8.899c2.115-4.43,3.153-9.243,3.118-14.049C323.176,31.378,320.038,23.245,313.822,17.03z"/>
<polygon style="fill:#E5A1A1;" points="399.635,247.826 385.991,234.182 372.348,247.826 "/>
<path style="fill:#F9C5C5;" d="M204.841,291.644c-6.703,33.127-35.565,57.054-69.352,57.744c-6.317,0.122-12.633,0.122-18.96,0
	c-33.787-0.691-62.639-24.617-69.342-57.744c-6.855-33.889-10.765-67.006-9.973-99.158c0,0-0.335-44.735,39.129-71.393
	c22.566-15.243,50.635-18.981,75.892-11.202c8.206,2.519,16.107,6.256,23.439,11.202c39.464,26.658,39.129,71.393,39.129,71.393
	C215.605,224.638,211.696,257.756,204.841,291.644z"/>
<path style="fill:#A67EFF;" d="M146.322,370.097h14.126c33.046,0,59.826,26.79,59.826,59.836v74.45H34.794v-74.45
	c0-33.046,26.78-59.836,59.826-59.836h14.126"/>
<g>
	<rect x="34.794" y="469.113" style="fill:#F9C5C5;" width="35.351" height="35.27"/>
	<rect x="184.923" y="469.113" style="fill:#F9C5C5;" width="35.351" height="35.27"/>
	<path style="fill:#F9C5C5;" d="M146.322,348.598v21.499c0,10.376-8.412,18.788-18.788,18.788l0,0
		c-10.376,0-18.788-8.412-18.788-18.788v-21.499"/>
</g>
<path style="fill:#E5A1A1;" d="M146.322,348.598v13.547c0,0-29.167,2.255-25.5,25.5c-2.488-0.944-4.722-2.417-6.571-4.265
	c-3.402-3.392-5.504-8.094-5.504-13.283v-21.499H146.322z"/>
<g>
	<path style="fill:#E5A1A1;" d="M135.489,349.389c-6.317,0.122-12.633,0.122-18.96,0c-33.787-0.691-62.639-24.617-69.342-57.744
		c-6.855-33.889-10.765-67.006-9.973-99.158c0,0-0.335-44.735,39.129-71.393c22.566-15.243,50.635-18.981,75.892-11.202
		c0,0-81.876,26.992-86.139,76.735C60.003,257.715,55.595,315.124,135.489,349.389z"/>
	<polygon style="fill:#E5A1A1;" points="139.654,247.826 126.011,234.182 112.367,247.826 	"/>
</g>
<path style="fill:#C96C18;" d="M126.011,275.995c14.656,28.168,57.886-3.047,57.886-3.047c-12.187,12.187-18.28-3.047-30.467-11.171
	c-12.187-8.124-27.42,3.047-27.42,3.047s-15.233-11.171-27.42-3.047c-12.187,8.124-18.28,23.358-30.467,11.171
	C68.124,272.949,111.354,304.164,126.011,275.995z"/>
<path d="M347.401,218.78c-4.206,0-7.617,3.41-7.617,7.617v10.156c0,4.206,3.41,7.617,7.617,7.617c4.206,0,7.617-3.41,7.617-7.617
	v-10.156C355.017,222.19,351.607,218.78,347.401,218.78z"/>
<path d="M424.582,218.78c-4.206,0-7.617,3.41-7.617,7.617v10.156c0,4.206,3.41,7.617,7.617,7.617c4.206,0,7.617-3.41,7.617-7.617
	v-10.156C432.199,222.19,428.789,218.78,424.582,218.78z"/>
<path d="M445.189,338.528c13.892-11.559,23.515-27.673,27.098-45.373c0.408-2.02,0.802-4.023,1.185-6.015
	c1.26,0.272,2.42,0.378,3.432,0.378c17.358,0,28.435-27.969,28.435-47.223c0-8.393-2.038-16.048-5.515-22.197
	c1.627-7.796,2.452-15.798,2.452-23.834c0-64.118-52.163-116.281-116.281-116.281s-116.281,52.163-116.281,116.281
	c0,8.033,0.825,16.033,2.449,23.826c-3.48,6.15-5.52,13.808-5.52,22.205c0,19.254,11.078,47.223,28.435,47.223
	c1.016,0,2.18-0.106,3.446-0.381c0.385,2,0.767,3.997,1.176,6.019c3.582,17.699,13.205,33.812,27.096,45.372
	c9.925,8.259,21.76,13.952,34.312,16.667v7.286h-6.51c-4.572,0-9.143,0.461-13.586,1.371c-4.121,0.844-6.778,4.869-5.935,8.99
	c0.738,3.606,3.912,6.091,7.454,6.091c0.507,0,1.021-0.051,1.536-0.156c3.44-0.704,6.983-1.061,10.531-1.061h7.619
	c1.238,4.137,3.485,7.921,6.617,11.044c4.978,4.993,11.612,7.744,18.678,7.744c11.911,0,22.002-7.93,25.28-18.788h7.634
	c11.749,0,22.602,3.904,31.336,10.48c-9.376,11.84-14.478,26.382-14.478,41.739v66.833h-99.544v-66.833
	c0-15.36-5.104-29.904-14.483-41.745c1.372-1.027,2.784-2.015,4.272-2.919c3.595-2.184,4.739-6.87,2.553-10.464
	c-2.185-3.594-6.87-4.74-10.464-2.553c-20.327,12.353-32.463,33.916-32.463,57.682v74.45c0,4.206,3.41,7.617,7.617,7.617h185.481
	c4.206,0,7.617-3.41,7.617-7.617v-74.45c0-37.194-30.255-67.453-67.443-67.453h-6.51v-8.007
	C425.336,351.534,436.069,346.116,445.189,338.528z M302.391,496.767v-66.833c0-11.36,3.592-22.065,10.038-30.849
	c6.541,8.887,10.08,19.586,10.08,30.849v66.833H302.391z M472.638,429.933v66.833H452.52v-66.833
	c0-11.239,3.525-21.916,10.04-30.792C468.889,407.781,472.638,418.425,472.638,429.933z M437.056,247.133l-1.98,4.433
	c-1.83,4.095-5.336,7.204-9.621,8.53c-4.284,1.326-8.935,0.74-12.758-1.605c-16.473-10.11-36.94-10.109-53.412,0
	c-3.824,2.346-8.472,2.932-12.758,1.606c-4.285-1.325-7.791-4.435-9.621-8.53l-1.98-4.433
	c-5.202-11.643-16.929-18.565-29.095-18.215c-1.132-14.727-1.401-28.748-0.814-42.185c17.347,8.338,53.482,23.067,92.32,23.066
	c6.685,0,13.455-0.437,20.218-1.418c3.745-0.543,6.523-3.753,6.523-7.537v-8.306c9.804,8.315,24.534,18.499,42.824,24.188
	c-0.18,4.015-0.43,8.079-0.743,12.193C453.99,228.565,442.26,235.488,437.056,247.133z M476.904,272.283
	c-0.179,0-0.43-0.069-0.729-0.206c3.034-18.277,4.952-35.426,5.805-51.853c4.961,3.611,8.126,12.182,8.126,20.069
	C490.106,256.224,481.053,272.283,476.904,272.283z M385.995,93.216c55.717,0,101.047,45.33,101.047,101.047
	c0,3.694-0.208,7.377-0.605,11.03c-2.968-1.335-6.173-2.067-9.533-2.067c-0.524,0-1.05,0.02-1.573,0.056
	c-31.481-8.193-52.791-33.446-52.999-33.694c-2.047-2.477-5.428-3.403-8.449-2.314c-3.022,1.088-5.038,3.955-5.038,7.167v19.625
	c-52.891,4.655-106.33-25.737-106.882-26.055c-2.261-1.307-5.033-1.365-7.344-0.155c-2.313,1.211-3.846,3.521-4.06,6.123
	c-0.798,9.689-1.137,19.661-1.046,29.937c-1.36,0.339-2.681,0.802-3.96,1.377c-0.397-3.652-0.605-7.334-0.605-11.027
	C284.947,138.545,330.277,93.216,385.995,93.216z M295.079,272.283c-4.15,0-13.202-16.059-13.202-31.99
	c0-7.895,3.171-16.473,8.14-20.078c0.86,16.413,2.795,33.644,5.811,51.853C295.519,272.211,295.262,272.283,295.079,272.283z
	 M314.633,290.134c-3.257-16.098-5.694-31.387-7.343-45.996c5.794,0.2,11.239,3.637,13.729,9.21l1.98,4.433
	c3.618,8.098,10.554,14.246,19.026,16.868c8.473,2.622,17.669,1.465,25.228-3.175c11.559-7.092,25.919-7.093,37.477,0
	c4.9,3.007,10.488,4.552,16.121,4.552c3.057,0,6.127-0.455,9.107-1.377c8.473-2.622,15.408-8.77,19.026-16.868l1.98-4.433
	c2.493-5.579,7.949-9.018,13.749-9.212c-1.64,14.543-4.078,29.786-7.357,45.997c-6.026,29.773-31.527,51.008-62.003,51.64
	c-6.209,0.119-12.51,0.121-18.717,0C346.156,341.141,320.658,319.907,314.633,290.134z M398.686,370.097
	c0,6.159-5.012,11.171-11.171,11.171c-2.989,0-5.791-1.16-7.906-3.281c-2.105-2.099-3.265-4.902-3.265-7.89v-13.094
	c3.201,0.062,6.422,0.092,9.646,0.092c3.229,0,6.46-0.031,9.669-0.092c1.012-0.021,2.021-0.068,3.028-0.127L398.686,370.097
	L398.686,370.097z"/>
<path d="M291.22,95.851c2.975-2.975,2.975-7.797,0-10.771c-2.975-2.975-7.797-2.975-10.771,0l-18.757,18.757l-46.745-46.745
	c-1.993-1.993-3.607-4.274-4.805-6.79c-1.556-3.263-2.378-6.911-2.38-10.512c0.002-0.07,0.004-0.139,0.004-0.209
	c0.043-6.482,2.592-12.579,7.181-17.165c4.631-4.632,10.787-7.182,17.336-7.182c6.549,0,12.707,2.551,17.339,7.182l6.683,6.683
	c2.975,2.975,7.797,2.975,10.771,0l6.684-6.684c4.631-4.632,10.787-7.182,17.336-7.182s12.707,2.551,17.339,7.183
	c4.584,4.583,7.133,10.68,7.177,17.168c0.027,3.699-0.794,7.402-2.381,10.726c-1.191,2.509-2.805,4.791-4.796,6.782L298.248,67.28
	c-2.975,2.975-2.975,7.797,0,10.771c2.975,2.975,7.797,2.975,10.771,0l10.189-10.189c3.225-3.224,5.844-6.932,7.778-11.003
	c2.569-5.38,3.905-11.393,3.861-17.383c-0.072-10.515-4.205-20.398-11.639-27.832C311.7,4.135,301.716,0,291.097,0
	s-20.601,4.135-28.108,11.644l-1.298,1.298l-1.298-1.298C252.885,4.135,242.901,0,232.284,0c-10.619,0-20.601,4.135-28.107,11.642
	c-7.423,7.42-11.555,17.277-11.642,27.765c-0.002,0.115-0.003,0.231-0.003,0.344c0,5.893,1.335,11.808,3.859,17.1
	c1.942,4.083,4.562,7.786,7.786,11.011l52.131,52.131c1.487,1.487,3.437,2.231,5.385,2.231s3.899-0.743,5.385-2.231L291.22,95.851z"
	/>
<path d="M87.42,244.169c4.206,0,7.617-3.41,7.617-7.617v-10.156c0-4.206-3.41-7.617-7.617-7.617c-4.206,0-7.617,3.41-7.617,7.617
	v10.156C79.803,240.759,83.213,244.169,87.42,244.169z"/>
<path d="M164.601,244.169c4.206,0,7.617-3.41,7.617-7.617v-10.156c0-4.206-3.41-7.617-7.617-7.617s-7.617,3.41-7.617,7.617v10.156
	C156.985,240.759,160.395,244.169,164.601,244.169z"/>
<path d="M412.576,297.757c2.975-2.975,2.975-7.797,0-10.771c-2.975-2.975-7.797-2.975-10.771,0c-8.717,8.719-22.903,8.72-31.622,0
	c-2.975-2.975-7.797-2.975-10.771,0c-2.975,2.975-2.975,7.797,0,10.771c7.329,7.329,16.956,10.993,26.583,10.993
	C395.622,308.751,405.246,305.087,412.576,297.757z"/>
<path d="M222.511,203.919c0.034-3.88,0.003-7.718-0.089-11.517c-0.002-3.469-0.852-49.501-42.48-77.619
	c-15.931-10.761-34.58-16.448-53.931-16.448c-19.35,0-38,5.688-53.93,16.448C30.452,142.9,29.602,188.932,29.6,192.401
	c-0.093,3.799-0.123,7.637-0.089,11.517C16.33,207.216,6.663,222.01,6.663,240.293c0,19.254,11.078,47.223,28.435,47.223
	c1.013,0,2.174-0.106,3.437-0.379c0.384,1.994,0.774,3.994,1.183,6.014c3.583,17.704,13.211,33.82,27.112,45.381
	c9.924,8.252,21.755,13.941,34.3,16.656v7.292h-6.51c-37.188,0-67.443,30.259-67.443,67.453v74.45c0,4.206,3.41,7.617,7.617,7.617
	h48.564c4.206,0,7.617-3.41,7.617-7.617c0-4.206-3.41-7.617-7.617-7.617h-5.596v-66.833c0-15.357-5.102-29.899-14.478-41.739
	c8.734-6.576,19.587-10.48,31.336-10.48h7.619c1.238,4.137,3.485,7.921,6.617,11.044c4.978,4.993,11.612,7.744,18.678,7.744
	c11.911,0,22.002-7.93,25.28-18.788h7.634c11.749,0,22.602,3.904,31.336,10.48c-9.376,11.84-14.478,26.382-14.478,41.739v66.833
	h-68.56c-4.206,0-7.617,3.41-7.617,7.617c0,4.206,3.41,7.617,7.617,7.617h111.527c4.206,0,7.617-3.41,7.617-7.617v-74.45
	c0-37.194-30.255-67.453-67.443-67.453h-6.51v-8.014c11.41-2.939,22.137-8.353,31.253-15.934
	c13.901-11.56,23.529-27.677,27.112-45.381c0.408-2.019,0.799-4.02,1.183-6.014c1.262,0.274,2.424,0.379,3.437,0.379
	c17.358,0,28.435-27.969,28.435-47.223C245.358,222.01,235.691,207.215,222.511,203.919z M52.488,399.141
	c6.515,8.876,10.04,19.552,10.04,30.792v31.563H42.41v-31.563C42.41,418.425,46.159,407.781,52.488,399.141z M42.41,496.767V476.73
	h20.118v20.037H42.41z M192.539,496.767V476.73h20.118v20.037H192.539z M212.657,429.933v31.563h-20.118v-31.563
	c0-11.239,3.525-21.916,10.04-30.792C208.908,407.781,212.657,418.425,212.657,429.933z M35.098,272.283
	c-4.15,0-13.202-16.059-13.202-31.99c0-7.887,3.164-16.455,8.123-20.067c0.857,16.401,2.782,33.598,5.81,51.849
	C35.529,272.213,35.278,272.283,35.098,272.283z M138.705,370.097c0,6.159-5.012,11.171-11.171,11.171
	c-2.989,0-5.791-1.16-7.906-3.281c-2.105-2.099-3.265-4.902-3.265-7.89V357c0.004,0,0.009,0,0.013,0
	c3.196,0.065,6.415,0.098,9.635,0.098c3.219,0,6.438-0.033,9.634-0.098c1.023-0.021,2.042-0.068,3.061-0.128L138.705,370.097
	L138.705,370.097z M135.332,341.769c-6.185,0.127-12.458,0.127-18.643,0c-30.502-0.624-56.014-21.859-62.04-51.639
	c-7.335-36.251-10.546-68.128-9.818-97.454c0.002-0.067,0.002-0.156,0.002-0.224c-0.003-1.668,0.338-41.111,35.774-65.046
	c27.158-18.344,63.651-18.344,90.809,0c35.435,23.934,35.777,63.378,35.774,65.024c0,0.082,0,0.165,0.002,0.246
	c0.728,29.328-2.483,61.206-9.818,97.454C191.346,319.911,165.834,341.145,135.332,341.769z M216.923,272.283
	c-0.18,0-0.432-0.07-0.732-0.208c3.029-18.249,4.954-35.448,5.81-51.849c4.96,3.612,8.123,12.182,8.123,20.067
	C230.125,256.224,221.072,272.283,216.923,272.283z"/>
<path d="M179.438,266.773c-1.101,0.795-2.676,1.841-4.591,2.999c-1.372-0.283-3.19-2.003-7.035-5.716
	c-2.889-2.792-6.164-5.955-10.157-8.616c-11.815-7.878-24.92-3.051-31.645,0.5c-6.726-3.55-19.831-8.376-31.645-0.5
	c-3.992,2.662-7.267,5.825-10.157,8.616c-3.858,3.726-5.657,5.464-7.055,5.714c-1.864-1.134-3.425-2.173-4.571-2.997
	c-3.219-2.325-7.684-1.786-10.258,1.237c-2.574,3.023-2.395,7.516,0.413,10.324c3.327,3.327,6.496,5.258,9.487,6.18
	c2.286,1.299,4.931,2.702,7.814,4.052c6.175,2.89,11.962,4.856,17.34,5.91c0.301,1.376,0.979,2.687,2.049,3.758
	c7.329,7.329,16.956,10.993,26.583,10.993s19.253-3.664,26.582-10.993c1.068-1.068,1.747-2.376,2.047-3.75
	c9.695-1.881,18.958-6.36,25.357-10.034c2.931-0.947,6.033-2.864,9.285-6.116c2.808-2.808,2.988-7.301,0.413-10.324
	C187.121,264.987,182.658,264.447,179.438,266.773z M94.791,275.012c2.545-2.458,5.175-5,8.024-6.898
	c6.405-4.269,15.335,0.715,17.946,2.361c-0.6,0.572-1.113,1.245-1.508,2.004c-2.078,3.994-4.848,6.284-8.718,7.206
	c-5.287,1.259-11.846-0.096-18.119-2.414C93.261,276.491,94.054,275.725,94.791,275.012z M118.978,292.85
	c2.573-1.14,4.928-2.657,7.033-4.529c2.104,1.873,4.458,3.39,7.033,4.529C128.481,294.355,123.54,294.355,118.978,292.85z
	 M141.501,279.689c-3.878-0.92-6.653-3.21-8.734-7.209c-0.395-0.76-0.908-1.433-1.509-2.005c2.612-1.647,11.54-6.632,17.947-2.36
	c2.849,1.899,5.479,4.441,8.024,6.898c0.728,0.704,1.51,1.459,2.343,2.228C153.299,279.558,146.736,280.931,141.501,279.689z"/>
<g>
</g>
<g>
</g>
<g>
</g>
<g>
</g>
<g>
</g>
<g>
</g>
<g>
</g>
<g>
</g>
<g>
</g>
<g>
</g>
<g>
</g>
<g>
</g>
<g>
</g>
<g>
</g>
<g>
</g>
</svg>
