<?xml version="1.0" encoding="iso-8859-1"?>
<!-- Generator: Adobe Illustrator 19.0.0, SVG Export Plug-In . SVG Version: 6.00 Build 0)  -->
<svg version="1.1" id="Layer_1" xmlns="http://www.w3.org/2000/svg" xmlns:xlink="http://www.w3.org/1999/xlink" x="0px" y="0px"
	 viewBox="0 0 512 512" style="enable-background:new 0 0 512 512;" xml:space="preserve">
<path style="fill:#F2F2F2;" d="M460.716,145.067l-7.467-12.8H285.783v362.667l38.4-19.2c8.533-4.267,30.933-14.933,56.533-29.867
	c37.333-21.333,81.067-49.067,97.067-72.533C540.716,280.533,463.916,150.4,460.716,145.067z M432.983,344.533
	c-6.4,9.6-27.733,24.533-52.267,40.533c-12.8,8.533-27.733,16-41.6,23.467V185.6h82.133
	C436.183,216.533,468.183,293.333,432.983,344.533z"/>
<path style="opacity:0.1;fill:#231F20;enable-background:new    ;" d="M339.116,185.6v222.933c13.867-7.467,27.733-16,41.6-23.467
	v61.867c-25.6,13.867-48,25.6-56.533,29.867l-38.4,19.2V133.333h94.933v53.333h-41.6V185.6z"/>
<path style="fill:#F2F2F2;" d="M343.383,512H38.316c-11.733,0-21.333-9.6-21.333-21.333v-416h347.733v416
	C364.716,502.4,355.116,512,343.383,512z"/>
<path style="fill:#FFD15C;" d="M140.716,427.733H62.85c-11.733,0-21.333-9.6-21.333-21.333V74.667h100.267v353.067H140.716z"/>
<rect x="140.716" y="74.667" style="fill:#F8B64C;" width="100.267" height="353.067"/>
<path style="fill:#F4A83B;" d="M318.85,427.733h-78.933V74.667h100.267V406.4C340.183,418.133,330.583,427.733,318.85,427.733z"/>
<g>
	<path style="fill:#F2F2F2;" d="M335.916,39.467c-11.733,0-22.4,4.267-30.933,10.667c-2.133-2.133-4.267-3.2-7.467-4.267
		C293.25,25.6,275.116,9.6,253.783,9.6c-17.067,0-32,9.6-39.467,24.533C210.05,14.933,191.916,0,171.65,0
		c-19.2,0-36.267,12.8-41.6,29.867c-7.467-7.467-18.133-11.733-28.8-11.733c-22.4,0-39.467,17.067-42.667,37.333
		c-3.2-1.067-7.467-2.133-10.667-2.133c-21.333,0-38.4,17.067-38.4,38.4s17.067,38.4,38.4,38.4c10.667,0,19.2-4.267,26.667-10.667
		c3.2,4.267,6.4,7.467,10.667,9.6v60.8c0,7.467,6.4,12.8,12.8,12.8c7.467,0,12.8-6.4,12.8-12.8v-54.4
		c8.533-1.067,16-4.267,21.333-8.533c7.467,5.333,16,9.6,26.667,9.6c3.2,0,6.4,0,8.533-1.067c2.133,1.067,4.267,2.133,6.4,3.2
		v84.267c0,9.6,8.533,18.133,18.133,18.133l0,0c9.6,0,18.133-8.533,18.133-18.133v-84.267c8.533-3.2,14.933-8.533,20.267-16
		c9.6,13.867,25.6,22.4,42.667,22.4c11.733,0,22.4-4.267,30.933-10.667c8.533,6.4,19.2,10.667,30.933,10.667
		c28.8,0,52.267-23.467,52.267-52.267C388.183,62.933,364.716,39.467,335.916,39.467z"/>
	<path style="fill:#F2F2F2;" d="M218.583,28.8c-1.067,1.067-3.2,2.133-4.267,3.2c0,1.067,1.067,1.067,1.067,2.133
		C215.383,32,216.45,29.867,218.583,28.8z"/>
</g>
<g>
	<path style="opacity:0.05;fill:#231F20;enable-background:new    ;" d="M335.916,144c-11.733,0-22.4-4.267-30.933-10.667
		c-8.533,6.4-19.2,10.667-30.933,10.667c-18.133,0-33.067-8.533-42.667-22.4c-5.333,6.4-12.8,12.8-20.267,16v4.267
		c3.2-3.2,7.467-6.4,9.6-9.6c9.6,13.867,25.6,22.4,42.667,22.4c11.733,0,22.4-4.267,30.933-10.667
		c8.533,6.4,19.2,10.667,30.933,10.667c17.067,0,32-8.533,41.6-21.333C358.316,140.8,347.65,144,335.916,144z"/>
	<path style="opacity:0.05;fill:#231F20;enable-background:new    ;" d="M192.983,240L192.983,240
		c-9.6,0-18.133-8.533-18.133-18.133V137.6c-2.133-1.067-4.267-2.133-6.4-3.2c-3.2,1.067-6.4,1.067-8.533,1.067
		c-9.6,0-19.2-3.2-26.667-9.6c-6.4,4.267-13.867,7.467-21.333,8.533v8.533c4.267-1.067,7.467-3.2,10.667-6.4
		c7.467,5.333,16,9.6,26.667,9.6c3.2,0,6.4,0,8.533-1.067c2.133,1.067,4.267,2.133,6.4,3.2v84.267c0,9.6,8.533,18.133,18.133,18.133
		l0,0c7.467,0,13.867-5.333,17.067-11.733C197.25,238.933,195.116,240,192.983,240z"/>
	<path style="opacity:0.05;fill:#231F20;enable-background:new    ;" d="M84.183,188.8V128c-4.267-2.133-7.467-5.333-10.667-9.6
		c-6.4,6.4-16,10.667-26.667,10.667c-12.8,0-23.467-6.4-29.867-14.933V134.4c5.333,3.2,11.733,5.333,19.2,5.333
		c10.667,0,19.2-4.267,26.667-10.667c3.2,4.267,6.4,7.467,10.667,9.6v60.8c0,7.467,6.4,12.8,12.8,12.8s11.733-5.333,12.8-10.667
		c-1.067,0-1.067,0-2.133,0C90.583,202.667,84.183,196.267,84.183,188.8z"/>
	<g style="opacity:0.001;">
		<path style="fill:#231F20;" d="M66.05,37.333C72.45,32,80.983,28.8,90.583,28.8c11.733,0,21.333,4.267,28.8,11.733
			c2.133-5.333,4.267-9.6,7.467-12.8c-7.467-5.333-16-8.533-25.6-8.533C86.316,18.133,73.516,25.6,66.05,37.333z"/>
		<path style="fill:#231F20;" d="M171.65,0c-14.933,0-27.733,7.467-36.267,19.2c7.467-5.333,16-8.533,25.6-8.533
			c21.333,0,38.4,14.933,42.667,34.133c2.133-5.333,6.4-9.6,9.6-12.8C208.983,13.867,191.916,0,171.65,0z"/>
		<path style="fill:#231F20;" d="M335.916,39.467c-11.733,0-22.4,4.267-30.933,10.667c-2.133-2.133-4.267-3.2-7.467-4.267
			C293.25,25.6,275.116,9.6,253.783,9.6c-14.933,0-27.733,7.467-36.267,19.2c7.467-5.333,16-8.533,25.6-8.533
			c21.333,0,39.467,16,43.733,36.267c2.133,1.067,4.267,2.133,7.467,4.267c8.533-6.4,19.2-10.667,30.933-10.667
			c28.8,0,52.267,23.467,52.267,52.267c0,11.733-4.267,22.4-10.667,30.933c12.8-9.6,21.333-24.533,21.333-41.6
			C388.183,62.933,364.716,39.467,335.916,39.467z"/>
	</g>
</g>
<g>
</g>
<g>
</g>
<g>
</g>
<g>
</g>
<g>
</g>
<g>
</g>
<g>
</g>
<g>
</g>
<g>
</g>
<g>
</g>
<g>
</g>
<g>
</g>
<g>
</g>
<g>
</g>
<g>
</g>
</svg>
