<?xml version="1.0" encoding="iso-8859-1"?>
<!-- Generator: Adobe Illustrator 19.0.0, SVG Export Plug-In . SVG Version: 6.00 Build 0)  -->
<svg version="1.1" id="Layer_1" xmlns="http://www.w3.org/2000/svg" xmlns:xlink="http://www.w3.org/1999/xlink" x="0px" y="0px"
	 viewBox="0 0 297 297" style="enable-background:new 0 0 297 297;" xml:space="preserve">
<g>
	<g>
		<g>
			<g>
				<g>
					<g>
						<circle style="fill:#D5C295;" cx="148.5" cy="148.5" r="148.5"/>
					</g>
				</g>
			</g>
		</g>
	</g>
	<path style="fill:#BCA77E;" d="M237.887,141.719l52.069,52.072c-15.801,49.389-56.74,87.535-107.772,99.37L125.429,230.5H214.5
		L237.887,141.719z"/>
	<g>
		<path style="fill:#79302A;" d="M82.5,49.5c-18.225,0-33,14.775-33,33s33,66,33,66s33-47.775,33-66S100.725,49.5,82.5,49.5z
			 M82.5,99C73.387,99,66,91.613,66,82.5S73.387,66,82.5,66S99,73.387,99,82.5S91.613,99,82.5,99z"/>
	</g>
	<g>
		<path style="fill:#662621;" d="M214.5,132c-18.225,0-33,14.775-33,33s33,66,33,66s33-47.775,33-66S232.725,132,214.5,132z
			 M214.5,181.5c-9.113,0-16.5-7.387-16.5-16.5s7.387-16.5,16.5-16.5S231,155.887,231,165S223.613,181.5,214.5,181.5z"/>
	</g>
	<g>
		<g>
			<path style="fill:#503B2C;" d="M82.497,153.5c-1.311,0-2.601-0.53-3.53-1.46c-0.93-0.931-1.47-2.221-1.47-3.54
				c0-1.32,0.54-2.61,1.47-3.54c0.93-0.931,2.22-1.46,3.53-1.46c1.319,0,2.609,0.529,3.54,1.46c0.93,0.939,1.46,2.22,1.46,3.54
				c0,1.31-0.53,2.6-1.46,3.54C85.106,152.97,83.816,153.5,82.497,153.5z"/>
		</g>
		<g>
			<path style="fill:#503B2C;" d="M195.327,231c0-2.76,2.239-5,5-5l0,0c2.76,0,5,2.24,5,5l0,0c0,2.76-2.24,5-5,5l0,0
				C197.566,236,195.327,233.76,195.327,231z M181.227,231c0-2.76,2.24-5,5-5l0,0c2.76,0,5,2.24,5,5l0,0c0,2.76-2.24,5-5,5l0,0
				C183.467,236,181.227,233.76,181.227,231z M167.127,231c0-2.76,2.24-5,5-5l0,0c2.76,0,5,2.24,5,5l0,0c0,2.76-2.24,5-5,5l0,0
				C169.367,236,167.127,233.76,167.127,231z M153.026,231c0-2.76,2.24-5,5-5l0,0c2.761,0,5,2.24,5,5l0,0c0,2.76-2.239,5-5,5l0,0
				C155.267,236,153.026,233.76,153.026,231z M138.937,231c0-2.76,2.23-5,4.99-5l0,0c2.771,0,5.01,2.24,5.01,5l0,0
				c0,2.76-2.239,5-5.01,5l0,0C141.167,236,138.937,233.76,138.937,231z M129.037,235.76h0.01c-2.73-0.44-4.58-3.01-4.14-5.74l0,0
				c0.449-2.72,3.02-4.569,5.739-4.13l0,0c2.73,0.44,4.58,3.021,4.13,5.74l0,0c-0.399,2.45-2.52,4.2-4.93,4.2l0,0
				C129.587,235.83,129.316,235.8,129.037,235.76z M114.537,225.359L114.537,225.359c-1.431-2.369-0.67-5.439,1.699-6.859l0,0
				c2.36-1.431,5.431-0.67,6.86,1.689l0,0c0,0,0,0,0,0.011l0,0c1.43,2.359,0.66,5.43-1.7,6.859l0,0c-0.81,0.49-1.699,0.72-2.58,0.72
				l0,0C117.127,227.779,115.467,226.91,114.537,225.359z M115.316,214.27c-2.76-0.12-4.909-2.45-4.79-5.21l0,0
				c0.11-2.76,2.45-4.899,5.21-4.78l0,0c2.75,0.11,4.9,2.44,4.78,5.2l0,0c-0.109,2.69-2.33,4.79-4.99,4.79l0,0
				C115.457,214.27,115.387,214.27,115.316,214.27z M117.017,200.13c-2.189-1.68-2.62-4.82-0.939-7.01l0,0
				c1.67-2.2,4.81-2.62,7.01-0.95l0,0c2.189,1.68,2.61,4.82,0.939,7.01l0,0c-0.979,1.29-2.47,1.97-3.979,1.97l0,0
				C118.986,201.149,117.927,200.81,117.017,200.13z M141.137,189.75c0-2.76,2.24-5,5-5l0,0c2.76,0,5,2.24,5,5l0,0
				c0,2.76-2.24,5-5,5l0,0C143.377,194.75,141.137,192.51,141.137,189.75z M127.037,189.75c0-2.76,2.239-5,5-5l0,0
				c2.76,0,5,2.24,5,5l0,0c0,2.76-2.24,5-5,5l0,0C129.276,194.75,127.037,192.51,127.037,189.75z M155.427,188.68
				c-1.97-1.93-2-5.1-0.07-7.07l0,0c1.931-1.97,5.101-2.01,7.07-0.069l0,0c1.97,1.93,2.01,5.09,0.07,7.069l0,0
				c-0.98,1-2.271,1.5-3.57,1.5l0,0C157.667,190.109,156.407,189.63,155.427,188.68z M164.117,177.5
				c-2.74-0.37-4.66-2.88-4.301-5.62l0,0c0.37-2.74,2.881-4.66,5.62-4.29l0,0c2.73,0.36,4.66,2.88,4.29,5.61l0,0
				c-0.33,2.52-2.479,4.34-4.95,4.34l0,0C164.557,177.54,164.337,177.529,164.117,177.5z M158.236,160.88
				c-1.159-2.5-0.079-5.47,2.431-6.64l0,0c2.5-1.171,5.479-0.08,6.64,2.43l0,0c0,0,0,0,0-0.01l0,0c1.17,2.51,0.08,5.479-2.42,6.649
				l0,0c-0.689,0.311-1.4,0.46-2.11,0.46l0,0C160.896,163.77,159.087,162.7,158.236,160.88z M151.267,153.97h0.01
				c-2.619-0.9-4-3.75-3.1-6.36l0,0c0.9-2.609,3.75-4,6.36-3.09l0,0c2.609,0.9,3.989,3.74,3.09,6.36l0,0
				c-0.71,2.06-2.65,3.36-4.73,3.36l0,0C152.356,154.24,151.807,154.16,151.267,153.97z M133.896,148.5c0-2.76,2.23-5,4.99-5l0,0
				c2.76,0,5,2.24,5,5l0,0c0,2.76-2.24,5-5,5l0,0C136.127,153.5,133.896,151.26,133.896,148.5z M119.797,148.5c0-2.76,2.229-5,5-5
				l0,0c2.76,0,5,2.24,5,5l0,0c0,2.76-2.24,5-5,5l0,0C122.026,153.5,119.797,151.26,119.797,148.5z M105.697,148.5
				c0-2.76,2.239-5,5-5l0,0c2.76,0,5,2.24,5,5l0,0c0,2.76-2.24,5-5,5l0,0C107.937,153.5,105.697,151.26,105.697,148.5z
				 M91.597,148.5c0-2.76,2.24-5,5-5l0,0c2.76,0,5,2.24,5,5l0,0c0,2.76-2.24,5-5,5l0,0C93.837,153.5,91.597,151.26,91.597,148.5z"/>
		</g>
		<g>
			<path style="fill:#503B2C;" d="M214.497,236c-1.311,0-2.601-0.53-3.53-1.471c-0.93-0.92-1.47-2.21-1.47-3.529
				c0-1.32,0.54-2.61,1.47-3.54c0.93-0.931,2.22-1.46,3.53-1.46c1.319,0,2.609,0.529,3.54,1.46c0.93,0.93,1.46,2.22,1.46,3.54
				c0,1.319-0.53,2.609-1.46,3.529C217.106,235.47,215.816,236,214.497,236z"/>
		</g>
	</g>
</g>
<g>
</g>
<g>
</g>
<g>
</g>
<g>
</g>
<g>
</g>
<g>
</g>
<g>
</g>
<g>
</g>
<g>
</g>
<g>
</g>
<g>
</g>
<g>
</g>
<g>
</g>
<g>
</g>
<g>
</g>
</svg>
