<?xml version="1.0" encoding="iso-8859-1"?>
<!-- Generator: Adobe Illustrator 19.0.0, SVG Export Plug-In . SVG Version: 6.00 Build 0)  -->
<svg version="1.1" id="Layer_1" xmlns="http://www.w3.org/2000/svg" xmlns:xlink="http://www.w3.org/1999/xlink" x="0px" y="0px"
	 viewBox="0 0 512 512" style="enable-background:new 0 0 512 512;" xml:space="preserve">
<path style="fill:#CAEEC5;" d="M88.381,217.977L71.04,19.478h186.94l-10.997,198.499H88.381z"/>
<path style="fill:#FF7B00;" d="M253.798,94.964l-6.815,123.014H88.381L76.695,84.217c21.353-16.559,63.16-14.332,88.199,0.361
	c8.861,5.202,19.945,8.74,31.464,10.387h4.299h53.142V94.964z"/>
<path style="fill:#CAEEC5;" d="M359.063,183.115v59.754c0,98.597-80.666,179.268-179.257,179.268c-0.001,0-0.002,0-0.003,0
	c-0.001,0-0.002,0-0.003,0c-98.591,0-179.257-80.672-179.257-179.268v-59.754h179.259H359.063z"/>
<path style="fill:#5B5B5B;" d="M174.625,370.5c-14.239,8.219-32.6,3.299-40.816-10.932l-12.398-21.473
	c-6.68-11.58-4.671-25.895,3.977-35.257c-0.268-0.341-0.52-0.701-0.742-1.09L1.192,86.53c-2.454-4.28-0.996-9.75,3.259-12.22
	c4.253-2.47,9.693-1.002,12.148,3.278l123.453,215.218c0.23,0.402,0.415,0.817,0.578,1.237c12.434-2.817,25.843,2.59,32.53,14.176
	l12.4,21.467C193.774,343.918,188.853,362.285,174.625,370.5z"/>
<path style="fill:#CF8F3D;" d="M358.848,251.526c-4.556,94.618-83.354,170.612-179.043,170.612c-0.001,0-0.002,0-0.003,0
	c-0.001,0-0.002,0-0.003,0c-95.689,0-174.486-75.994-179.043-170.612L358.848,251.526L358.848,251.526z"/>
<path style="fill:#97BAA8;" d="M0.544,242.87v-59.754h22.234v59.755c0,86.516,70.44,156.902,157.021,156.902
	c86.588,0,157.027-70.386,157.027-156.902v-59.755h22.235v59.754c0,98.597-80.666,179.268-179.257,179.268c-0.001,0-0.002,0-0.003,0
	c-0.001,0-0.002,0-0.003,0C81.209,422.138,0.544,341.466,0.544,242.87z"/>
<path style="fill:#9E9D9D;" d="M511.939,483.575c0,4.941-3.981,8.947-8.894,8.947H9.438c-4.912,0-8.894-4.006-8.894-8.947
	s3.981-8.947,8.894-8.947h493.608C507.958,474.628,511.939,478.634,511.939,483.575z"/>
<path style="fill:#663310;" d="M229.403,291.785h-1.71c-4.912,0-8.894-4.006-8.894-8.947s3.981-8.947,8.894-8.947h1.71
	c4.912,0,8.894,4.006,8.894,8.947S234.316,291.785,229.403,291.785z M240.101,343.148h-1.713c-4.912,0-8.894,4.006-8.894,8.947
	s3.981,8.947,8.894,8.947h1.713c4.912,0,8.894-4.006,8.894-8.947C248.994,347.154,245.013,343.148,240.101,343.148z M63.865,288.966
	h-1.713c-4.912,0-8.894,4.006-8.894,8.947s3.981,8.947,8.894,8.947h1.713c4.912,0,8.894-4.006,8.894-8.947
	S68.777,288.966,63.865,288.966z"/>
<path style="fill:#981700;" d="M503.105,250.974h-40.143v-14.501h-78.563h-78.028v107.363c0,43.066,35.232,78.3,78.294,78.3
	c43.068,0,78.297-35.234,78.297-78.3v-5.583h40.143c4.912,0,8.894-4.006,8.894-8.947v-69.386
	C512,254.98,508.018,250.974,503.105,250.974z M494.212,320.36h-31.249v-51.493h31.249V320.36z"/>
<path style="fill:#C13421;" d="M306.371,343.838V236.475h5.663h72.365h6.199v107.363c0,30.03-17.14,56.235-42.113,69.358
	C323.513,400.073,306.371,373.868,306.371,343.838z"/>
<path style="fill:#FFBB5E;" d="M435.512,188.395c-1.759,2.034-4.23,3.075-6.714,3.075c-2.07,0-4.149-0.722-5.833-2.196
	c-3.706-3.242-4.097-8.893-0.874-12.622c10.959-12.672,10.502-41.382-0.939-59.076c-13.805-21.35-16.814-59.447,0.939-79.977
	c3.225-3.728,8.842-4.122,12.547-0.878c3.706,3.243,4.097,8.893,0.874,12.622c-10.959,12.672-10.691,41.091,0.551,58.477
	C450.346,129.908,453.534,167.556,435.512,188.395z M393.152,49.342c3.223-3.728,2.833-9.379-0.874-12.622
	c-3.705-3.243-9.323-2.849-12.547,0.878c-17.753,20.53-14.745,58.626-0.939,79.977c11.441,17.694,11.898,46.404,0.939,59.076
	c-3.223,3.728-2.833,9.378,0.874,12.622c1.684,1.474,3.763,2.196,5.833,2.196c2.484,0,4.955-1.042,6.714-3.075
	c18.02-20.838,14.834-58.487,0.551-80.575C382.461,90.433,382.194,62.014,393.152,49.342z"/>
<path style="fill:#5B7F81;" d="M185.559,329.685c8.214,14.232,3.294,32.6-10.935,40.814c-14.239,8.219-32.6,3.299-40.816-10.932
	l-12.398-21.473c-6.68-11.58-4.671-25.895,3.977-35.257c-0.268-0.341-0.52-0.701-0.742-1.09l-68.05-118.633h20.537l62.92,109.689
	c0.23,0.402,0.415,0.817,0.578,1.237c12.434-2.817,25.843,2.59,32.53,14.176L185.559,329.685z"/>
<g>
</g>
<g>
</g>
<g>
</g>
<g>
</g>
<g>
</g>
<g>
</g>
<g>
</g>
<g>
</g>
<g>
</g>
<g>
</g>
<g>
</g>
<g>
</g>
<g>
</g>
<g>
</g>
<g>
</g>
</svg>
