<?xml version="1.0" encoding="iso-8859-1"?>
<!-- Generator: Adobe Illustrator 19.0.0, SVG Export Plug-In . SVG Version: 6.00 Build 0)  -->
<svg version="1.1" id="Layer_1" xmlns="http://www.w3.org/2000/svg" xmlns:xlink="http://www.w3.org/1999/xlink" x="0px" y="0px"
	 viewBox="0 0 512 512" style="enable-background:new 0 0 512 512;" xml:space="preserve">
<polygon style="fill:#CED6E0;" points="411.733,438.4 402.133,275.2 384,275.2 374.4,438.4 "/>
<g>
	<polygon style="fill:#E8EAE9;" points="403.2,259.2 384,259.2 374.4,231.467 397.867,135.467 403.2,135.467 	"/>
	<polygon style="fill:#E8EAE9;" points="373.333,275.2 382.933,291.2 363.733,313.6 268.8,341.333 266.667,337.067 	"/>
	<polygon style="fill:#E8EAE9;" points="402.133,292.267 411.733,276.267 440.533,281.6 512,349.867 509.867,354.133 	"/>
</g>
<circle style="fill:#ADB3BA;" cx="392.533" cy="275.2" r="21.333"/>
<circle style="fill:#E8EAE9;" cx="392.533" cy="275.2" r="9.6"/>
<path style="fill:#4EC0AA;" d="M279.467,408.533c-54.4,0-104.533,8.533-147.2,24.533V512H512v-29.867
	C464,438.4,377.6,408.533,279.467,408.533z"/>
<polygon style="fill:#CED6E0;" points="219.733,473.6 204.8,212.267 177.067,212.267 162.133,473.6 "/>
<g>
	<polygon style="fill:#F3F3F3;" points="205.867,186.667 178.133,186.667 163.2,145.067 198.4,0 205.867,0 	"/>
	<polygon style="fill:#F3F3F3;" points="162.133,211.2 176,235.733 147.2,269.867 4.267,311.467 0,305.067 	"/>
	<polygon style="fill:#F3F3F3;" points="204.8,237.867 219.733,213.333 262.4,221.867 371.2,324.267 366.933,330.667 	"/>
</g>
<circle style="fill:#ADB3BA;" cx="190.933" cy="212.267" r="32"/>
<circle style="fill:#E8EAE9;" cx="190.933" cy="212.267" r="13.867"/>
<path style="fill:#66C6B9;" d="M0,512V411.733C131.2,421.333,237.867,460.8,282.667,512H0z"/>
<g>
</g>
<g>
</g>
<g>
</g>
<g>
</g>
<g>
</g>
<g>
</g>
<g>
</g>
<g>
</g>
<g>
</g>
<g>
</g>
<g>
</g>
<g>
</g>
<g>
</g>
<g>
</g>
<g>
</g>
</svg>
