<?xml version="1.0" encoding="iso-8859-1"?>
<!-- Generator: Adobe Illustrator 19.0.0, SVG Export Plug-In . SVG Version: 6.00 Build 0)  -->
<svg version="1.1" id="Layer_1" xmlns="http://www.w3.org/2000/svg" xmlns:xlink="http://www.w3.org/1999/xlink" x="0px" y="0px"
	 viewBox="0 0 512 512" style="enable-background:new 0 0 512 512;" xml:space="preserve">
<path style="fill:#939393;" d="M500.87,278.261H11.13c-6.147,0-11.13-4.983-11.13-11.13V244.87c0-6.147,4.983-11.13,11.13-11.13
	H500.87c6.147,0,11.13,4.983,11.13,11.13v22.261C512,273.278,507.017,278.261,500.87,278.261z"/>
<path style="fill:#5B5B5B;" d="M512,256v11.13c0,6.147-4.983,11.13-11.13,11.13H11.13c-6.147,0-11.13-4.983-11.13-11.13V256H512z"/>
<path style="fill:#3D3D3D;" d="M435.478,403.478c0,4.61-3.738,8.348-8.348,8.348H84.87c-4.61,0-8.348-3.738-8.348-8.348
	s3.738-8.348,8.348-8.348H427.13C431.741,395.13,435.478,398.868,435.478,403.478z M9.461,395.13H8.348
	c-4.61,0-8.348,3.738-8.348,8.348s3.738,8.348,8.348,8.348h1.113c4.61,0,8.348-3.738,8.348-8.348S14.071,395.13,9.461,395.13z
	 M52.87,395.13h-1.113c-4.61,0-8.348,3.738-8.348,8.348s3.738,8.348,8.348,8.348h1.113c4.61,0,8.348-3.738,8.348-8.348
	S57.48,395.13,52.87,395.13z M460.243,395.13h-1.113c-4.61,0-8.348,3.738-8.348,8.348s3.738,8.348,8.348,8.348h1.113
	c4.61,0,8.348-3.738,8.348-8.348S464.854,395.13,460.243,395.13z M503.652,395.13h-1.113c-4.61,0-8.348,3.738-8.348,8.348
	s3.738,8.348,8.348,8.348h1.113c4.61,0,8.348-3.738,8.348-8.348S508.262,395.13,503.652,395.13z"/>
<path style="fill:#007DBC;" d="M166.957,122.435v256c0,12.295-9.966,22.261-22.261,22.261h-22.261
	c-12.295,0-22.261-9.966-22.261-22.261v-55.652c0,12.295-9.966,22.261-22.261,22.261H55.652c-12.295,0-22.261-9.966-22.261-22.261
	V189.217c0-12.295,9.966-22.261,22.261-22.261h22.261c12.295,0,22.261,9.966,22.261,22.261v-66.783
	c0-12.295,9.966-22.261,22.261-22.261h22.261C156.99,100.174,166.957,110.14,166.957,122.435z M456.348,166.957h-22.261
	c-12.295,0-22.261,9.966-22.261,22.261v-66.783c0-12.295-9.966-22.261-22.261-22.261h-22.261c-12.295,0-22.261,9.966-22.261,22.261
	v256c0,12.295,9.966,22.261,22.261,22.261h22.261c12.295,0,22.261-9.966,22.261-22.261v-55.652c0,12.295,9.966,22.261,22.261,22.261
	h22.261c12.295,0,22.261-9.966,22.261-22.261V189.217C478.609,176.923,468.642,166.957,456.348,166.957z"/>
<path style="fill:#004859;" d="M166.957,122.435v267.13c0,12.295-9.966,22.261-22.261,22.261h-22.261
	c-12.295,0-22.261-9.966-22.261-22.261v-66.783c0,12.295-9.966,22.261-22.261,22.261H55.652c-12.295,0-22.261-9.966-22.261-22.261
	v-33.391c0,12.295,9.966,22.261,22.261,22.261s22.261-9.966,22.261-22.261v-21.148V166.957c12.295,0,22.261,9.966,22.261,22.261
	v79.026v21.148c0,12.295,9.966,22.261,22.261,22.261s22.261-9.966,22.261-22.261v-21.148v-168.07
	C156.99,100.174,166.957,110.14,166.957,122.435z M456.348,166.957v101.287v21.148c0,12.295-9.966,22.261-22.261,22.261
	c-12.295,0-22.261-9.966-22.261-22.261v-21.148v-79.026V168.07v-45.635c0-12.295-9.966-22.261-22.261-22.261v168.07v21.148
	c0,12.295-9.966,22.261-22.261,22.261c-12.295,0-22.261-9.966-22.261-22.261v100.174c0,12.295,9.966,22.261,22.261,22.261h22.261
	c12.295,0,22.261-9.966,22.261-22.261v-66.783c0,12.295,9.966,22.261,22.261,22.261h22.261c12.295,0,22.261-9.966,22.261-22.261
	V189.217C478.609,176.923,468.642,166.957,456.348,166.957z"/>
<path style="fill:#FFFFFF;" d="M144.696,138.574v1.113c0,4.61-3.738,8.348-8.348,8.348c-4.61,0-8.348-3.738-8.348-8.348v-1.113
	c0-4.61,3.738-8.348,8.348-8.348C140.958,130.226,144.696,133.964,144.696,138.574z M136.348,158.609
	c-4.61,0-8.348,3.738-8.348,8.348v44.522c0,4.61,3.738,8.348,8.348,8.348c4.61,0,8.348-3.738,8.348-8.348v-44.522
	C144.696,162.346,140.958,158.609,136.348,158.609z M69.565,192c-4.61,0-8.348,3.738-8.348,8.348v1.113
	c0,4.61,3.738,8.348,8.348,8.348c4.61,0,8.348-3.738,8.348-8.348v-1.113C77.913,195.738,74.175,192,69.565,192z M69.565,220.383
	c-4.61,0-8.348,3.738-8.348,8.348V256c0,4.61,3.738,8.348,8.348,8.348c4.61,0,8.348-3.738,8.348-8.348v-27.27
	C77.913,224.12,74.175,220.383,69.565,220.383z M448,220.383c-4.61,0-8.348,3.738-8.348,8.348V256c0,4.61,3.738,8.348,8.348,8.348
	c4.61,0,8.348-3.738,8.348-8.348v-27.27C456.348,224.12,452.61,220.383,448,220.383z M448,192c-4.61,0-8.348,3.738-8.348,8.348
	v1.113c0,4.61,3.738,8.348,8.348,8.348c4.61,0,8.348-3.738,8.348-8.348v-1.113C456.348,195.738,452.61,192,448,192z
	 M381.217,130.226c-4.61,0-8.348,3.738-8.348,8.348v1.113c0,4.61,3.738,8.348,8.348,8.348s8.348-3.738,8.348-8.348v-1.113
	C389.565,133.964,385.828,130.226,381.217,130.226z M381.217,158.609c-4.61,0-8.348,3.738-8.348,8.348v44.522
	c0,4.61,3.738,8.348,8.348,8.348s8.348-3.738,8.348-8.348v-44.522C389.565,162.346,385.828,158.609,381.217,158.609z"/>
<g>
</g>
<g>
</g>
<g>
</g>
<g>
</g>
<g>
</g>
<g>
</g>
<g>
</g>
<g>
</g>
<g>
</g>
<g>
</g>
<g>
</g>
<g>
</g>
<g>
</g>
<g>
</g>
<g>
</g>
</svg>
