<?xml version="1.0" encoding="iso-8859-1"?>
<!-- Generator: Adobe Illustrator 19.0.0, SVG Export Plug-In . SVG Version: 6.00 Build 0)  -->
<svg version="1.1" id="Layer_1" xmlns="http://www.w3.org/2000/svg" xmlns:xlink="http://www.w3.org/1999/xlink" x="0px" y="0px"
	 viewBox="0 0 512.002 512.002" style="enable-background:new 0 0 512.002 512.002;" xml:space="preserve">
<g>
	<rect x="44.117" y="92.768" style="fill:#959CB5;" width="17.647" height="44.117"/>
	<rect x="202.938" y="92.768" style="fill:#959CB5;" width="17.647" height="44.117"/>
	<rect x="123.527" y="92.768" style="fill:#959CB5;" width="17.647" height="44.117"/>
</g>
<path style="fill:#FF507D;" d="M5.498,242.766c-3.952,51.217-5.163,105.055-5.497,132.166c-0.121,9.824,7.821,17.831,17.647,17.831
	h485.491c4.822,0,8.762-3.859,8.822-8.68c0.276-22.064-0.504-82.709-14.79-141.317H5.498z"/>
<path style="fill:#D23C69;" d="M511.961,384.083c0.077-6.144,0.058-15.362-0.298-26.613H0.287
	c-0.132,6.594-0.224,12.486-0.286,17.463c-0.121,9.824,7.821,17.831,17.647,17.831h485.491
	C507.96,392.763,511.901,388.904,511.961,384.083z"/>
<path style="fill:#7DF5A5;" d="M18.969,147.368c-6.903,25.023-11.305,64.337-14.13,104.223h494.38
	c-9.184-41.604-24.827-83.209-51.42-110.354c-8.293-8.465-19.641-13.173-31.491-13.173c-64.405,0-304.053,0-371.865,0
	C32.565,128.063,22.128,135.916,18.969,147.368z"/>
<g>
	<path style="fill:#B92D64;" d="M176.469,392.763l-12.162-42.565C161.06,338.835,150.674,331,138.855,331H72.908
		c-11.819,0-22.205,7.834-25.452,19.199l-12.162,42.565"/>
	<path style="fill:#B92D64;" d="M476.463,392.763l-12.162-42.565C461.054,338.835,450.668,331,438.849,331h-65.948
		c-11.819,0-22.205,7.834-25.452,19.199l-12.162,42.565"/>
</g>
<g>
	<path style="fill:#E4EAF8;" d="M220.586,216.296h-70.587c-4.873,0-8.823-3.951-8.823-8.823v-35.293
		c0-4.873,3.951-8.823,8.823-8.823h70.587c4.873,0,8.823,3.951,8.823,8.823v35.293C229.409,212.346,225.458,216.296,220.586,216.296
		z"/>
	<path style="fill:#E4EAF8;" d="M335.289,216.296h-70.587c-4.873,0-8.823-3.951-8.823-8.823v-35.293
		c0-4.873,3.951-8.823,8.823-8.823h70.587c4.873,0,8.823,3.951,8.823,8.823v35.293C344.113,212.346,340.162,216.296,335.289,216.296
		z"/>
</g>
<path style="fill:#FFDC64;" d="M220.586,101.592H44.118c-4.873,0-8.823-3.951-8.823-8.823V57.476c0-4.873,3.951-8.823,8.823-8.823
	h176.467c4.873,0,8.823,3.951,8.823,8.823v35.293C229.409,97.642,225.458,101.592,220.586,101.592z"/>
<circle style="fill:#464655;" cx="105.881" cy="410.409" r="52.94"/>
<circle style="fill:#7DF5A5;" cx="105.881" cy="410.409" r="26.47"/>
<circle style="fill:#64DCA0;" cx="105.881" cy="410.409" r="8.823"/>
<circle style="fill:#464655;" cx="405.875" cy="410.409" r="52.94"/>
<circle style="fill:#7DF5A5;" cx="405.875" cy="410.409" r="26.47"/>
<circle style="fill:#64DCA0;" cx="405.875" cy="410.409" r="8.823"/>
<path style="fill:#E4EAF8;" d="M509.96,326.217c-1.13-14.447-2.864-30.341-5.478-46.777c-0.994-0.109-1.985-0.239-3.011-0.201
	c-12.272,0.465-21.81,11.698-21.304,25.089c0.508,13.392,10.868,23.871,23.141,23.405
	C505.662,327.644,507.859,327.037,509.96,326.217z"/>
<path style="fill:#FFDC64;" d="M306.484,251.59c7.015,10.011,11.158,22.168,11.158,35.293c0,13.85-4.639,26.606-12.367,36.919
	l-40.573-40.573v-31.641h-17.647v31.641l-40.573,40.573c-7.728-10.313-12.367-23.07-12.367-36.919
	c0-13.126,4.144-25.282,11.158-35.293h-20.419c-5.318,10.648-8.385,22.604-8.385,35.293c0,43.785,35.621,79.41,79.41,79.41
	s79.41-35.625,79.41-79.41c0-12.689-3.067-24.646-8.385-35.293H306.484z M247.056,347.942c-10.437-1.503-20.018-5.609-28.096-11.662
	l28.096-28.096V347.942z M264.702,347.942v-39.758l28.096,28.096C284.721,342.332,275.139,346.439,264.702,347.942z"/>
<path style="fill:#E4EAF8;" d="M465.25,163.356h-85.844c-4.873,0-8.823,3.951-8.823,8.823v35.293c0,4.873,3.951,8.823,8.823,8.823
	h110.176C483.334,197.228,475.414,179.068,465.25,163.356z"/>
<g>
	<path style="fill:#C7CFE2;" d="M220.586,163.356h-70.587c-4.873,0-8.823,3.951-8.823,8.823v17.647c0-4.873,3.951-8.823,8.823-8.823
		h70.587c4.873,0,8.823,3.951,8.823,8.823v-17.647C229.409,167.307,225.458,163.356,220.586,163.356z"/>
	<path style="fill:#C7CFE2;" d="M335.289,163.356h-70.587c-4.873,0-8.823,3.951-8.823,8.823v17.647c0-4.873,3.951-8.823,8.823-8.823
		h70.587c4.873,0,8.823,3.951,8.823,8.823v-17.647C344.113,167.307,340.162,163.356,335.289,163.356z"/>
	<path style="fill:#C7CFE2;" d="M379.406,181.003h95.739c-3.064-6.116-6.292-12.078-9.895-17.647h-85.844
		c-4.873,0-8.823,3.951-8.823,8.823v17.647C370.583,184.953,374.533,181.003,379.406,181.003z"/>
</g>
<path style="fill:#FFC850;" d="M220.586,83.946H44.118c-4.873,0-8.823-3.951-8.823-8.823v17.647c0,4.873,3.951,8.823,8.823,8.823
	h176.467c4.873,0,8.823-3.951,8.823-8.823V75.122C229.409,79.995,225.458,83.946,220.586,83.946z"/>
<g>
</g>
<g>
</g>
<g>
</g>
<g>
</g>
<g>
</g>
<g>
</g>
<g>
</g>
<g>
</g>
<g>
</g>
<g>
</g>
<g>
</g>
<g>
</g>
<g>
</g>
<g>
</g>
<g>
</g>
</svg>
