<?xml version="1.0" encoding="iso-8859-1"?>
<!-- Generator: Adobe Illustrator 19.0.0, SVG Export Plug-In . SVG Version: 6.00 Build 0)  -->
<svg version="1.1" id="Layer_1" xmlns="http://www.w3.org/2000/svg" xmlns:xlink="http://www.w3.org/1999/xlink" x="0px" y="0px"
	 viewBox="0 0 512 512" style="enable-background:new 0 0 512 512;" xml:space="preserve">
<g>
	<polygon style="fill:#BD9F79;" points="394.398,438.857 388.22,512 123.78,512 117.602,438.857 256,405.099 	"/>
	<polygon style="fill:#BD9F79;" points="421.978,112.527 415.8,185.67 256,219.429 96.2,185.67 90.022,112.527 	"/>
</g>
<path style="fill:#F9EBDB;" d="M415.8,185.67l-21.403,253.187H117.602L96.2,185.67H415.8z"/>
<path style="fill:#B75548;" d="M198.78,255.044l73.134,41.307l41.307,73.134c-21.774,21.774-65.041,13.807-96.65-17.791
	C184.973,320.084,177.006,276.818,198.78,255.044z"/>
<path style="fill:#8E4238;" d="M295.43,272.834c31.598,31.609,39.565,74.876,17.791,96.65l-114.44-114.44
	C220.554,233.269,263.832,241.236,295.43,272.834z"/>
<polygon style="fill:#E8D6BD;" points="388.22,0 405.099,67.516 256,101.275 106.901,67.516 123.78,0 "/>
<rect x="73.143" y="67.516" style="fill:#F9EBDB;" width="365.714" height="45.011"/>
<g>
</g>
<g>
</g>
<g>
</g>
<g>
</g>
<g>
</g>
<g>
</g>
<g>
</g>
<g>
</g>
<g>
</g>
<g>
</g>
<g>
</g>
<g>
</g>
<g>
</g>
<g>
</g>
<g>
</g>
</svg>
