<?xml version="1.0" encoding="iso-8859-1"?>
<!-- Generator: Adobe Illustrator 18.1.1, SVG Export Plug-In . SVG Version: 6.00 Build 0)  -->
<svg version="1.1" id="Capa_1" xmlns="http://www.w3.org/2000/svg" xmlns:xlink="http://www.w3.org/1999/xlink" x="0px" y="0px"
	 viewBox="0 0 464.857 464.857" style="enable-background:new 0 0 464.857 464.857;" xml:space="preserve">
<g>
	<g>
		<polygon style="fill:#010002;" points="464.857,415.228 422.401,171.135 352.601,171.135 352.609,174.622 352.65,195.781 
			352.65,195.927 394.065,195.927 430.969,390.436 33.701,390.436 77.986,195.927 321.948,195.927 321.908,179.142 321.892,171.135 
			50.95,171.135 0,415.228 		"/>
		<path style="fill:#010002;" d="M349.456,230.278l-5.552,7.486c-1.528,2.065-3.942,3.284-6.511,3.284c0,0-0.008,0-0.016,0
			c-2.56,0-4.975-1.211-6.511-3.26l-6.771-9.055l-0.471-0.634c-1.049-1.398-1.618-3.105-1.618-4.853l-0.033-17.655v-1.553H84.48
			l-40.586,178.26h36.538c-5.332-5.584-3.008-17.476,7.031-17.476s12.355,11.884,7.031,17.476h326.663l-33.823-178.26h-34.668
			l0.033,15.55l0.008,3.593c0,1.748-0.561,3.455-1.601,4.861L349.456,230.278z M107.785,352.134c-13.103,0-13.103-20.321,0-20.321
			S120.896,352.134,107.785,352.134z M138.275,331.804c-13.103,0-13.103-20.321,0-20.321S151.378,331.804,138.275,331.804z
			 M178.926,331.804c-13.103,0-13.103-20.321,0-20.321S192.029,331.804,178.926,331.804z M219.569,331.804
			c-13.103,0-13.103-20.321,0-20.321S232.68,331.804,219.569,331.804z M260.22,331.804c-13.103,0-13.103-20.321,0-20.321
			C273.323,311.483,273.331,331.804,260.22,331.804z M302.139,329.268c-13.103,0-13.103-20.321,0-20.321
			C315.242,308.947,315.251,329.268,302.139,329.268z M332.629,306.403c-13.103,0-13.103-20.321,0-20.321
			C345.733,286.081,345.733,306.403,332.629,306.403z M340.246,267.873c-13.103,0-13.103-20.321,0-20.321
			C353.349,247.552,353.357,267.873,340.246,267.873z"/>
		<path style="fill:#010002;" d="M360.088,96.645l-0.065-33.79l12.29-0.024c-0.016-7.308-15.721-13.201-35.115-13.201
			c-0.065,0-0.13,0-0.187,0c-19.484,0.041-35.27,6.015-35.254,13.339l12.29-0.024l0.065,33.799
			c-14.469,8.112-24.256,23.589-24.215,41.358l94.576-0.187C384.441,120.144,374.597,104.7,360.088,96.645z"/>
		<polygon style="fill:#010002;" points="330.02,171.135 330.036,179.125 330.077,195.927 330.085,199.991 330.093,204.056 
			330.093,205.584 330.126,223.239 330.597,223.873 337.368,232.928 342.92,225.442 344.578,223.215 344.57,219.622 
			344.538,204.056 344.53,199.991 344.522,195.927 344.522,195.797 344.481,174.638 344.473,171.135 344.44,156.227 
			344.424,146.904 329.971,146.928 329.988,152.577 330.02,170.314 		"/>
	</g>
</g>
<g>
</g>
<g>
</g>
<g>
</g>
<g>
</g>
<g>
</g>
<g>
</g>
<g>
</g>
<g>
</g>
<g>
</g>
<g>
</g>
<g>
</g>
<g>
</g>
<g>
</g>
<g>
</g>
<g>
</g>
</svg>
